<?xml version="1.0" encoding="UTF-8" standalone="no"?><svg xmlns="http://www.w3.org/2000/svg" xmlns:xlink="http://www.w3.org/1999/xlink" contentStyleType="text/css" height="2014.0625px" preserveAspectRatio="none" style="width:1582px;height:2014px;background:#FFFFFF;" version="1.1" viewBox="0 0 1582 2014" width="1582.8125px" zoomAndPan="magnify"><defs/><g><rect fill="#E6F2FF" height="1833.7158" style="stroke:#3B82F6;stroke-width:1.5625;" width="15.625" x="67.1875" y="142.6514"/><rect fill="#E6F2FF" height="227.6001" style="stroke:#3B82F6;stroke-width:1.5625;" width="15.625" x="542.1875" y="175.6714"/><rect fill="#E6F2FF" height="251.2451" style="stroke:#3B82F6;stroke-width:1.5625;" width="15.625" x="542.1875" y="472.4365"/><rect fill="#E6F2FF" height="227.6001" style="stroke:#3B82F6;stroke-width:1.5625;" width="15.625" x="542.1875" y="769.2017"/><rect fill="#E6F2FF" height="227.6001" style="stroke:#3B82F6;stroke-width:1.5625;" width="15.625" x="542.1875" y="1042.3218"/><rect fill="#E6F2FF" height="227.6001" style="stroke:#3B82F6;stroke-width:1.5625;" width="15.625" x="542.1875" y="1315.4419"/><rect fill="#E6F2FF" height="227.6001" style="stroke:#3B82F6;stroke-width:1.5625;" width="15.625" x="542.1875" y="1588.562"/><rect fill="#E6F2FF" height="114.6851" style="stroke:#3B82F6;stroke-width:1.5625;" width="15.625" x="542.1875" y="1861.6821"/><rect fill="#E6F2FF" height="136.5601" style="stroke:#3B82F6;stroke-width:1.5625;" width="15.625" x="928.125" y="221.1914"/><rect fill="#E6F2FF" height="136.5601" style="stroke:#3B82F6;stroke-width:1.5625;" width="15.625" x="928.125" y="517.9565"/><rect fill="#E6F2FF" height="136.5601" style="stroke:#3B82F6;stroke-width:1.5625;" width="15.625" x="928.125" y="814.7217"/><rect fill="#E6F2FF" height="136.5601" style="stroke:#3B82F6;stroke-width:1.5625;" width="15.625" x="928.125" y="1087.8418"/><rect fill="#E6F2FF" height="136.5601" style="stroke:#3B82F6;stroke-width:1.5625;" width="15.625" x="928.125" y="1360.9619"/><rect fill="#E6F2FF" height="136.5601" style="stroke:#3B82F6;stroke-width:1.5625;" width="15.625" x="928.125" y="1634.082"/><rect fill="#E6F2FF" height="45.52" style="stroke:#3B82F6;stroke-width:1.5625;" width="15.625" x="928.125" y="1930.8472"/><rect fill="#E6F2FF" height="45.52" style="stroke:#3B82F6;stroke-width:1.5625;" width="15.625" x="1478.125" y="266.7114"/><rect fill="#E6F2FF" height="45.52" style="stroke:#3B82F6;stroke-width:1.5625;" width="15.625" x="1478.125" y="563.4766"/><rect fill="#E6F2FF" height="45.52" style="stroke:#3B82F6;stroke-width:1.5625;" width="15.625" x="1478.125" y="860.2417"/><rect fill="#E6F2FF" height="45.52" style="stroke:#3B82F6;stroke-width:1.5625;" width="15.625" x="1478.125" y="1133.3618"/><rect fill="#E6F2FF" height="45.52" style="stroke:#3B82F6;stroke-width:1.5625;" width="15.625" x="1478.125" y="1406.4819"/><rect fill="#E6F2FF" height="45.52" style="stroke:#3B82F6;stroke-width:1.5625;" width="15.625" x="1478.125" y="1679.6021"/><line style="stroke:#3B82F6;stroke-width:0.78125;stroke-dasharray:5.0,5.0;" x1="75" x2="75" y1="127.0264" y2="2004.4922"/><line style="stroke:#3B82F6;stroke-width:0.78125;stroke-dasharray:5.0,5.0;" x1="549.2188" x2="549.2188" y1="127.0264" y2="2004.4922"/><line style="stroke:#3B82F6;stroke-width:0.78125;stroke-dasharray:5.0,5.0;" x1="935.9375" x2="935.9375" y1="127.0264" y2="2004.4922"/><line style="stroke:#3B82F6;stroke-width:0.78125;stroke-dasharray:5.0,5.0;" x1="1485.1563" x2="1485.1563" y1="127.0264" y2="2004.4922"/><text fill="#000000" font-family="sans-serif" font-size="21.875" lengthAdjust="spacing" textLength="125" x="7.8125" y="121.8674">Người dùng</text><ellipse cx="75" cy="21.0938" fill="#E2E2F0" rx="12.5" ry="12.5" style="stroke:#181818;stroke-width:0.78125;"/><path d="M75,33.5938 L75,75.7813 M54.6875,46.0938 L95.3125,46.0938 M75,75.7813 L54.6875,99.2188 M75,75.7813 L95.3125,99.2188 " fill="none" style="stroke:#181818;stroke-width:0.78125;"/><rect fill="#E6F2FF" height="49.1577" rx="3.9063" ry="3.9063" style="stroke:#3B82F6;stroke-width:0.78125;" width="135.9375" x="482.0313" y="76.3062"/><text fill="#000000" font-family="sans-serif" font-size="23.4375" lengthAdjust="spacing" textLength="114.0625" x="492.9688" y="108.9989">:Giao diện</text><rect fill="#E6F2FF" height="49.1577" rx="3.9063" ry="3.9063" style="stroke:#3B82F6;stroke-width:0.78125;" width="134.375" x="868.75" y="76.3062"/><text fill="#000000" font-family="sans-serif" font-size="23.4375" lengthAdjust="spacing" textLength="112.5" x="879.6875" y="108.9989">:Hệ thống</text><rect fill="#E6F2FF" height="49.1577" rx="3.9063" ry="3.9063" style="stroke:#3B82F6;stroke-width:0.78125;" width="176.5625" x="1397.6563" y="76.3062"/><text fill="#000000" font-family="sans-serif" font-size="23.4375" lengthAdjust="spacing" textLength="154.6875" x="1408.5938" y="108.9989">:Cơ sở dữ liệu</text><rect fill="#E6F2FF" height="1833.7158" style="stroke:#3B82F6;stroke-width:1.5625;" width="15.625" x="67.1875" y="142.6514"/><rect fill="#E6F2FF" height="227.6001" style="stroke:#3B82F6;stroke-width:1.5625;" width="15.625" x="542.1875" y="175.6714"/><rect fill="#E6F2FF" height="251.2451" style="stroke:#3B82F6;stroke-width:1.5625;" width="15.625" x="542.1875" y="472.4365"/><rect fill="#E6F2FF" height="227.6001" style="stroke:#3B82F6;stroke-width:1.5625;" width="15.625" x="542.1875" y="769.2017"/><rect fill="#E6F2FF" height="227.6001" style="stroke:#3B82F6;stroke-width:1.5625;" width="15.625" x="542.1875" y="1042.3218"/><rect fill="#E6F2FF" height="227.6001" style="stroke:#3B82F6;stroke-width:1.5625;" width="15.625" x="542.1875" y="1315.4419"/><rect fill="#E6F2FF" height="227.6001" style="stroke:#3B82F6;stroke-width:1.5625;" width="15.625" x="542.1875" y="1588.562"/><rect fill="#E6F2FF" height="114.6851" style="stroke:#3B82F6;stroke-width:1.5625;" width="15.625" x="542.1875" y="1861.6821"/><rect fill="#E6F2FF" height="136.5601" style="stroke:#3B82F6;stroke-width:1.5625;" width="15.625" x="928.125" y="221.1914"/><rect fill="#E6F2FF" height="136.5601" style="stroke:#3B82F6;stroke-width:1.5625;" width="15.625" x="928.125" y="517.9565"/><rect fill="#E6F2FF" height="136.5601" style="stroke:#3B82F6;stroke-width:1.5625;" width="15.625" x="928.125" y="814.7217"/><rect fill="#E6F2FF" height="136.5601" style="stroke:#3B82F6;stroke-width:1.5625;" width="15.625" x="928.125" y="1087.8418"/><rect fill="#E6F2FF" height="136.5601" style="stroke:#3B82F6;stroke-width:1.5625;" width="15.625" x="928.125" y="1360.9619"/><rect fill="#E6F2FF" height="136.5601" style="stroke:#3B82F6;stroke-width:1.5625;" width="15.625" x="928.125" y="1634.082"/><rect fill="#E6F2FF" height="45.52" style="stroke:#3B82F6;stroke-width:1.5625;" width="15.625" x="928.125" y="1930.8472"/><rect fill="#E6F2FF" height="45.52" style="stroke:#3B82F6;stroke-width:1.5625;" width="15.625" x="1478.125" y="266.7114"/><rect fill="#E6F2FF" height="45.52" style="stroke:#3B82F6;stroke-width:1.5625;" width="15.625" x="1478.125" y="563.4766"/><rect fill="#E6F2FF" height="45.52" style="stroke:#3B82F6;stroke-width:1.5625;" width="15.625" x="1478.125" y="860.2417"/><rect fill="#E6F2FF" height="45.52" style="stroke:#3B82F6;stroke-width:1.5625;" width="15.625" x="1478.125" y="1133.3618"/><rect fill="#E6F2FF" height="45.52" style="stroke:#3B82F6;stroke-width:1.5625;" width="15.625" x="1478.125" y="1406.4819"/><rect fill="#E6F2FF" height="45.52" style="stroke:#3B82F6;stroke-width:1.5625;" width="15.625" x="1478.125" y="1679.6021"/><polygon fill="#000000" points="523.4375,169.4214,539.0625,175.6714,523.4375,181.9214,529.6875,175.6714" style="stroke:#000000;stroke-width:1.5625;"/><line style="stroke:#000000;stroke-width:1.5625;" x1="82.8125" x2="532.8125" y1="175.6714" y2="175.6714"/><text fill="#000000" font-family="sans-serif" font-size="20.3125" lengthAdjust="spacing" textLength="226.5625" x="93.75" y="167.7559">1. Mở chi tiết nhiệm vụ</text><polygon fill="#000000" points="909.375,214.9414,925,221.1914,909.375,227.4414,915.625,221.1914" style="stroke:#000000;stroke-width:1.5625;"/><line style="stroke:#000000;stroke-width:1.5625;" x1="557.8125" x2="918.75" y1="221.1914" y2="221.1914"/><text fill="#000000" font-family="sans-serif" font-size="20.3125" lengthAdjust="spacing" textLength="309.375" x="568.75" y="213.2759">2. Yêu cầu danh sách bình luận</text><polygon fill="#000000" points="1459.375,260.4614,1475,266.7114,1459.375,272.9614,1465.625,266.7114" style="stroke:#000000;stroke-width:1.5625;"/><line style="stroke:#000000;stroke-width:1.5625;" x1="943.75" x2="1468.75" y1="266.7114" y2="266.7114"/><text fill="#000000" font-family="sans-serif" font-size="20.3125" lengthAdjust="spacing" textLength="415.625" x="954.6875" y="258.7959">3. Lấy danh sách bình luận theo nhiệm vụ</text><polygon fill="#000000" points="960.9375,305.9814,945.3125,312.2314,960.9375,318.4814,954.6875,312.2314" style="stroke:#000000;stroke-width:1.5625;"/><line style="stroke:#000000;stroke-width:1.5625;stroke-dasharray:2.0,2.0;" x1="951.5625" x2="1484.375" y1="312.2314" y2="312.2314"/><text fill="#000000" font-family="sans-serif" font-size="20.3125" lengthAdjust="spacing" textLength="203.125" x="970.3125" y="304.3159">Danh sách bình luận</text><polygon fill="#000000" points="575,351.5015,559.375,357.7515,575,364.0015,568.75,357.7515" style="stroke:#000000;stroke-width:1.5625;"/><line style="stroke:#000000;stroke-width:1.5625;stroke-dasharray:2.0,2.0;" x1="565.625" x2="934.375" y1="357.7515" y2="357.7515"/><text fill="#000000" font-family="sans-serif" font-size="20.3125" lengthAdjust="spacing" textLength="264.0625" x="584.375" y="349.836">4. Gửi danh sách bình luận</text><polygon fill="#000000" points="100,397.0215,84.375,403.2715,100,409.5215,93.75,403.2715" style="stroke:#000000;stroke-width:1.5625;"/><line style="stroke:#000000;stroke-width:1.5625;stroke-dasharray:2.0,2.0;" x1="90.625" x2="548.4375" y1="403.2715" y2="403.2715"/><text fill="#000000" font-family="sans-serif" font-size="20.3125" lengthAdjust="spacing" textLength="200" x="109.375" y="395.356">5. Hiển thị bình luận</text><polygon fill="#000000" points="523.4375,466.1865,539.0625,472.4365,523.4375,478.6865,529.6875,472.4365" style="stroke:#000000;stroke-width:1.5625;"/><line style="stroke:#000000;stroke-width:1.5625;" x1="82.8125" x2="532.8125" y1="472.4365" y2="472.4365"/><text fill="#000000" font-family="sans-serif" font-size="20.3125" lengthAdjust="spacing" textLength="267.1875" x="93.75" y="440.876">6. Nhập nội dung bình luận</text><text fill="#000000" font-family="sans-serif" font-size="20.3125" lengthAdjust="spacing" textLength="421.875" x="93.75" y="464.521">(kèm file hoặc gắn thẻ người dùng nếu có)</text><polygon fill="#000000" points="909.375,511.7065,925,517.9565,909.375,524.2065,915.625,517.9565" style="stroke:#000000;stroke-width:1.5625;"/><line style="stroke:#000000;stroke-width:1.5625;" x1="557.8125" x2="918.75" y1="517.9565" y2="517.9565"/><text fill="#000000" font-family="sans-serif" font-size="20.3125" lengthAdjust="spacing" textLength="321.875" x="568.75" y="510.041">7. Gửi yêu cầu tạo bình luận mới</text><polygon fill="#000000" points="1459.375,557.2266,1475,563.4766,1459.375,569.7266,1465.625,563.4766" style="stroke:#000000;stroke-width:1.5625;"/><line style="stroke:#000000;stroke-width:1.5625;" x1="943.75" x2="1468.75" y1="563.4766" y2="563.4766"/><text fill="#000000" font-family="sans-serif" font-size="20.3125" lengthAdjust="spacing" textLength="331.25" x="954.6875" y="555.5611">8. Lưu bình luận vào cơ sở dữ liệu</text><polygon fill="#000000" points="960.9375,602.7466,945.3125,608.9966,960.9375,615.2466,954.6875,608.9966" style="stroke:#000000;stroke-width:1.5625;"/><line style="stroke:#000000;stroke-width:1.5625;stroke-dasharray:2.0,2.0;" x1="951.5625" x2="1484.375" y1="608.9966" y2="608.9966"/><text fill="#000000" font-family="sans-serif" font-size="20.3125" lengthAdjust="spacing" textLength="164.0625" x="970.3125" y="601.0811">Đã tạo bình luận</text><polygon fill="#000000" points="575,648.2666,559.375,654.5166,575,660.7666,568.75,654.5166" style="stroke:#000000;stroke-width:1.5625;"/><line style="stroke:#000000;stroke-width:1.5625;stroke-dasharray:2.0,2.0;" x1="565.625" x2="934.375" y1="654.5166" y2="654.5166"/><text fill="#000000" font-family="sans-serif" font-size="20.3125" lengthAdjust="spacing" textLength="196.875" x="584.375" y="646.6011">9. Trả bình luận mới</text><polygon fill="#000000" points="100,717.4316,84.375,723.6816,100,729.9316,93.75,723.6816" style="stroke:#000000;stroke-width:1.5625;"/><line style="stroke:#000000;stroke-width:1.5625;stroke-dasharray:2.0,2.0;" x1="90.625" x2="548.4375" y1="723.6816" y2="723.6816"/><text fill="#000000" font-family="sans-serif" font-size="20.3125" lengthAdjust="spacing" textLength="256.25" x="109.375" y="692.1211">10. Hiển thị bình luận mới</text><text fill="#000000" font-family="sans-serif" font-size="20.3125" lengthAdjust="spacing" textLength="206.25" x="109.375" y="715.7661">(kèm file và gắn thẻ)</text><polygon fill="#000000" points="523.4375,762.9517,539.0625,769.2017,523.4375,775.4517,529.6875,769.2017" style="stroke:#000000;stroke-width:1.5625;"/><line style="stroke:#000000;stroke-width:1.5625;" x1="82.8125" x2="532.8125" y1="769.2017" y2="769.2017"/><text fill="#000000" font-family="sans-serif" font-size="20.3125" lengthAdjust="spacing" textLength="287.5" x="93.75" y="761.2862">11. Chọn chỉnh sửa bình luận</text><polygon fill="#000000" points="909.375,808.4717,925,814.7217,909.375,820.9717,915.625,814.7217" style="stroke:#000000;stroke-width:1.5625;"/><line style="stroke:#000000;stroke-width:1.5625;" x1="557.8125" x2="918.75" y1="814.7217" y2="814.7217"/><text fill="#000000" font-family="sans-serif" font-size="20.3125" lengthAdjust="spacing" textLength="340.625" x="568.75" y="806.8062">12. Gửi yêu cầu cập nhật nội dung</text><polygon fill="#000000" points="1459.375,853.9917,1475,860.2417,1459.375,866.4917,1465.625,860.2417" style="stroke:#000000;stroke-width:1.5625;"/><line style="stroke:#000000;stroke-width:1.5625;" x1="943.75" x2="1468.75" y1="860.2417" y2="860.2417"/><text fill="#000000" font-family="sans-serif" font-size="20.3125" lengthAdjust="spacing" textLength="317.1875" x="954.6875" y="852.3262">13. Cập nhật nội dung bình luận</text><polygon fill="#000000" points="960.9375,899.5117,945.3125,905.7617,960.9375,912.0117,954.6875,905.7617" style="stroke:#000000;stroke-width:1.5625;"/><line style="stroke:#000000;stroke-width:1.5625;stroke-dasharray:2.0,2.0;" x1="951.5625" x2="1484.375" y1="905.7617" y2="905.7617"/><text fill="#000000" font-family="sans-serif" font-size="20.3125" lengthAdjust="spacing" textLength="218.75" x="970.3125" y="897.8462">Đã cập nhật bình luận</text><polygon fill="#000000" points="575,945.0317,559.375,951.2817,575,957.5317,568.75,951.2817" style="stroke:#000000;stroke-width:1.5625;"/><line style="stroke:#000000;stroke-width:1.5625;stroke-dasharray:2.0,2.0;" x1="565.625" x2="934.375" y1="951.2817" y2="951.2817"/><text fill="#000000" font-family="sans-serif" font-size="20.3125" lengthAdjust="spacing" textLength="298.4375" x="584.375" y="943.3662">14. Trả bình luận đã chỉnh sửa</text><polygon fill="#000000" points="100,990.5518,84.375,996.8018,100,1003.0518,93.75,996.8018" style="stroke:#000000;stroke-width:1.5625;"/><line style="stroke:#000000;stroke-width:1.5625;stroke-dasharray:2.0,2.0;" x1="90.625" x2="548.4375" y1="996.8018" y2="996.8018"/><text fill="#000000" font-family="sans-serif" font-size="20.3125" lengthAdjust="spacing" textLength="251.5625" x="109.375" y="988.8863">15. Hiển thị nội dung mới</text><polygon fill="#000000" points="523.4375,1036.0718,539.0625,1042.3218,523.4375,1048.5718,529.6875,1042.3218" style="stroke:#000000;stroke-width:1.5625;"/><line style="stroke:#000000;stroke-width:1.5625;" x1="82.8125" x2="532.8125" y1="1042.3218" y2="1042.3218"/><text fill="#000000" font-family="sans-serif" font-size="20.3125" lengthAdjust="spacing" textLength="228.125" x="93.75" y="1034.4063">16. Chọn xóa bình luận</text><polygon fill="#000000" points="909.375,1081.5918,925,1087.8418,909.375,1094.0918,915.625,1087.8418" style="stroke:#000000;stroke-width:1.5625;"/><line style="stroke:#000000;stroke-width:1.5625;" x1="557.8125" x2="918.75" y1="1087.8418" y2="1087.8418"/><text fill="#000000" font-family="sans-serif" font-size="20.3125" lengthAdjust="spacing" textLength="293.75" x="568.75" y="1079.9263">17. Gửi yêu cầu xóa bình luận</text><polygon fill="#000000" points="1459.375,1127.1118,1475,1133.3618,1459.375,1139.6118,1465.625,1133.3618" style="stroke:#000000;stroke-width:1.5625;"/><line style="stroke:#000000;stroke-width:1.5625;" x1="943.75" x2="1468.75" y1="1133.3618" y2="1133.3618"/><text fill="#000000" font-family="sans-serif" font-size="20.3125" lengthAdjust="spacing" textLength="350" x="954.6875" y="1125.4463">18. Xóa bình luận khỏi cơ sở dữ liệu</text><polygon fill="#000000" points="960.9375,1172.6318,945.3125,1178.8818,960.9375,1185.1318,954.6875,1178.8818" style="stroke:#000000;stroke-width:1.5625;"/><line style="stroke:#000000;stroke-width:1.5625;stroke-dasharray:2.0,2.0;" x1="951.5625" x2="1484.375" y1="1178.8818" y2="1178.8818"/><text fill="#000000" font-family="sans-serif" font-size="20.3125" lengthAdjust="spacing" textLength="167.1875" x="970.3125" y="1170.9663">Đã xóa bình luận</text><polygon fill="#000000" points="575,1218.1519,559.375,1224.4019,575,1230.6519,568.75,1224.4019" style="stroke:#000000;stroke-width:1.5625;"/><line style="stroke:#000000;stroke-width:1.5625;stroke-dasharray:2.0,2.0;" x1="565.625" x2="934.375" y1="1224.4019" y2="1224.4019"/><text fill="#000000" font-family="sans-serif" font-size="20.3125" lengthAdjust="spacing" textLength="192.1875" x="584.375" y="1216.4864">19. Trả kết quả xóa</text><polygon fill="#000000" points="100,1263.6719,84.375,1269.9219,100,1276.1719,93.75,1269.9219" style="stroke:#000000;stroke-width:1.5625;"/><line style="stroke:#000000;stroke-width:1.5625;stroke-dasharray:2.0,2.0;" x1="90.625" x2="548.4375" y1="1269.9219" y2="1269.9219"/><text fill="#000000" font-family="sans-serif" font-size="20.3125" lengthAdjust="spacing" textLength="362.5" x="109.375" y="1262.0064">20. Loại bỏ bình luận khỏi danh sách</text><polygon fill="#000000" points="523.4375,1309.1919,539.0625,1315.4419,523.4375,1321.6919,529.6875,1315.4419" style="stroke:#000000;stroke-width:1.5625;"/><line style="stroke:#000000;stroke-width:1.5625;" x1="82.8125" x2="532.8125" y1="1315.4419" y2="1315.4419"/><text fill="#000000" font-family="sans-serif" font-size="20.3125" lengthAdjust="spacing" textLength="275" x="93.75" y="1307.5264">21. Mở danh sách nhiệm vụ</text><polygon fill="#000000" points="909.375,1354.7119,925,1360.9619,909.375,1367.2119,915.625,1360.9619" style="stroke:#000000;stroke-width:1.5625;"/><line style="stroke:#000000;stroke-width:1.5625;" x1="557.8125" x2="918.75" y1="1360.9619" y2="1360.9619"/><text fill="#000000" font-family="sans-serif" font-size="20.3125" lengthAdjust="spacing" textLength="339.0625" x="568.75" y="1353.0464">22. Yêu cầu số bình luận chưa đọc</text><polygon fill="#000000" points="1459.375,1400.2319,1475,1406.4819,1459.375,1412.7319,1465.625,1406.4819" style="stroke:#000000;stroke-width:1.5625;"/><line style="stroke:#000000;stroke-width:1.5625;" x1="943.75" x2="1468.75" y1="1406.4819" y2="1406.4819"/><text fill="#000000" font-family="sans-serif" font-size="20.3125" lengthAdjust="spacing" textLength="504.6875" x="954.6875" y="1398.5664">23. Truy vấn số bình luận chưa đọc của người dùng</text><polygon fill="#000000" points="960.9375,1445.752,945.3125,1452.002,960.9375,1458.252,954.6875,1452.002" style="stroke:#000000;stroke-width:1.5625;"/><line style="stroke:#000000;stroke-width:1.5625;stroke-dasharray:2.0,2.0;" x1="951.5625" x2="1484.375" y1="1452.002" y2="1452.002"/><text fill="#000000" font-family="sans-serif" font-size="20.3125" lengthAdjust="spacing" textLength="220.3125" x="970.3125" y="1444.0865">Số bình luận chưa đọc</text><polygon fill="#000000" points="575,1491.272,559.375,1497.522,575,1503.772,568.75,1497.522" style="stroke:#000000;stroke-width:1.5625;"/><line style="stroke:#000000;stroke-width:1.5625;stroke-dasharray:2.0,2.0;" x1="565.625" x2="934.375" y1="1497.522" y2="1497.522"/><text fill="#000000" font-family="sans-serif" font-size="20.3125" lengthAdjust="spacing" textLength="267.1875" x="584.375" y="1489.6065">24. Trả dữ liệu số chưa đọc</text><polygon fill="#000000" points="100,1536.792,84.375,1543.042,100,1549.292,93.75,1543.042" style="stroke:#000000;stroke-width:1.5625;"/><line style="stroke:#000000;stroke-width:1.5625;stroke-dasharray:2.0,2.0;" x1="90.625" x2="548.4375" y1="1543.042" y2="1543.042"/><text fill="#000000" font-family="sans-serif" font-size="20.3125" lengthAdjust="spacing" textLength="303.125" x="109.375" y="1535.1265">25. Hiển thị số lượng chưa đọc</text><polygon fill="#000000" points="523.4375,1582.312,539.0625,1588.562,523.4375,1594.812,529.6875,1588.562" style="stroke:#000000;stroke-width:1.5625;"/><line style="stroke:#000000;stroke-width:1.5625;" x1="82.8125" x2="532.8125" y1="1588.562" y2="1588.562"/><text fill="#000000" font-family="sans-serif" font-size="20.3125" lengthAdjust="spacing" textLength="429.6875" x="93.75" y="1580.6465">26. Xem danh sách bình luận của nhiệm vụ</text><polygon fill="#000000" points="909.375,1627.832,925,1634.082,909.375,1640.332,915.625,1634.082" style="stroke:#000000;stroke-width:1.5625;"/><line style="stroke:#000000;stroke-width:1.5625;" x1="557.8125" x2="918.75" y1="1634.082" y2="1634.082"/><text fill="#000000" font-family="sans-serif" font-size="20.3125" lengthAdjust="spacing" textLength="328.125" x="568.75" y="1626.1665">27. Gửi yêu cầu đánh dấu đã đọc</text><polygon fill="#000000" points="1459.375,1673.3521,1475,1679.6021,1459.375,1685.8521,1465.625,1679.6021" style="stroke:#000000;stroke-width:1.5625;"/><line style="stroke:#000000;stroke-width:1.5625;" x1="943.75" x2="1468.75" y1="1679.6021" y2="1679.6021"/><text fill="#000000" font-family="sans-serif" font-size="20.3125" lengthAdjust="spacing" textLength="304.6875" x="954.6875" y="1671.6866">28. Cập nhật trạng thái đã đọc</text><polygon fill="#000000" points="960.9375,1718.8721,945.3125,1725.1221,960.9375,1731.3721,954.6875,1725.1221" style="stroke:#000000;stroke-width:1.5625;"/><line style="stroke:#000000;stroke-width:1.5625;stroke-dasharray:2.0,2.0;" x1="951.5625" x2="1484.375" y1="1725.1221" y2="1725.1221"/><text fill="#000000" font-family="sans-serif" font-size="20.3125" lengthAdjust="spacing" textLength="121.875" x="970.3125" y="1717.2066">Đã cập nhật</text><polygon fill="#000000" points="575,1764.3921,559.375,1770.6421,575,1776.8921,568.75,1770.6421" style="stroke:#000000;stroke-width:1.5625;"/><line style="stroke:#000000;stroke-width:1.5625;stroke-dasharray:2.0,2.0;" x1="565.625" x2="934.375" y1="1770.6421" y2="1770.6421"/><text fill="#000000" font-family="sans-serif" font-size="20.3125" lengthAdjust="spacing" textLength="243.75" x="584.375" y="1762.7266">29. Trả kết quả cập nhật</text><polygon fill="#000000" points="100,1809.9121,84.375,1816.1621,100,1822.4121,93.75,1816.1621" style="stroke:#000000;stroke-width:1.5625;"/><line style="stroke:#000000;stroke-width:1.5625;stroke-dasharray:2.0,2.0;" x1="90.625" x2="548.4375" y1="1816.1621" y2="1816.1621"/><text fill="#000000" font-family="sans-serif" font-size="20.3125" lengthAdjust="spacing" textLength="379.6875" x="109.375" y="1808.2466">30. Cập nhật lại số bình luận chưa đọc</text><polygon fill="#000000" points="523.4375,1855.4321,539.0625,1861.6821,523.4375,1867.9321,529.6875,1861.6821" style="stroke:#000000;stroke-width:1.5625;"/><line style="stroke:#000000;stroke-width:1.5625;" x1="82.8125" x2="532.8125" y1="1861.6821" y2="1861.6821"/><text fill="#000000" font-family="sans-serif" font-size="20.3125" lengthAdjust="spacing" textLength="326.5625" x="93.75" y="1853.7666">31. Đang mở màn hình bình luận</text><polygon fill="#000000" points="575,1924.5972,559.375,1930.8472,575,1937.0972,568.75,1930.8472" style="stroke:#000000;stroke-width:1.5625;"/><line style="stroke:#000000;stroke-width:1.5625;" x1="565.625" x2="926.5625" y1="1930.8472" y2="1930.8472"/><text fill="#000000" font-family="sans-serif" font-size="20.3125" lengthAdjust="spacing" textLength="320.3125" x="584.375" y="1899.2867">32. Gửi thông báo thời gian thực</text><text fill="#000000" font-family="sans-serif" font-size="20.3125" lengthAdjust="spacing" textLength="275" x="584.375" y="1922.9317">(thêm / sửa / xóa bình luận)</text><polygon fill="#000000" points="92.1875,1970.1172,76.5625,1976.3672,92.1875,1982.6172,85.9375,1976.3672" style="stroke:#000000;stroke-width:1.5625;"/><line style="stroke:#000000;stroke-width:1.5625;stroke-dasharray:2.0,2.0;" x1="82.8125" x2="548.4375" y1="1976.3672" y2="1976.3672"/><text fill="#000000" font-family="sans-serif" font-size="20.3125" lengthAdjust="spacing" textLength="410.9375" x="101.5625" y="1968.4517">33. Tự động làm mới danh sách bình luận</text><!--MD5=[09aebaab1f9fe7cd448843187260dad3]
@startuml
!pragma useUnicode true
skinparam dpi 150
skinparam sequence {
  LifeLineBorderColor #3B82F6
  LifeLineBackgroundColor #E6F2FF
  ArrowColor #000000
  ParticipantFontSize 15
  BoxFontSize 15
  ParticipantBorderColor #3B82F6
  ParticipantBackgroundColor #E6F2FF
}
hide footbox

actor "Người dùng" as User
participant ":Giao diện" as UI
participant ":Hệ thống" as System
participant ":Cơ sở dữ liệu" as DB

activate User

' === 1. Hiển thị danh sách bình luận ===
User -> UI: 1. Mở chi tiết nhiệm vụ
activate UI
UI -> System: 2. Yêu cầu danh sách bình luận
activate System
System -> DB: 3. Lấy danh sách bình luận theo nhiệm vụ
activate DB
DB - -> System: Danh sách bình luận
deactivate DB
System - -> UI: 4. Gửi danh sách bình luận
deactivate System
UI - -> User: 5. Hiển thị bình luận
deactivate UI

' === 2. Thêm bình luận mới ===
User -> UI: 6. Nhập nội dung bình luận\n(kèm file hoặc gắn thẻ người dùng nếu có)
activate UI
UI -> System: 7. Gửi yêu cầu tạo bình luận mới
activate System
System -> DB: 8. Lưu bình luận vào cơ sở dữ liệu
activate DB
DB - -> System: Đã tạo bình luận
deactivate DB

System - -> UI: 9. Trả bình luận mới
deactivate System
UI - -> User: 10. Hiển thị bình luận mới\n(kèm file và gắn thẻ)
deactivate UI

' === 3. Chỉnh sửa bình luận ===
User -> UI: 11. Chọn chỉnh sửa bình luận
activate UI
UI -> System: 12. Gửi yêu cầu cập nhật nội dung
activate System
System -> DB: 13. Cập nhật nội dung bình luận
activate DB
DB - -> System: Đã cập nhật bình luận
deactivate DB
System - -> UI: 14. Trả bình luận đã chỉnh sửa
deactivate System
UI - -> User: 15. Hiển thị nội dung mới
deactivate UI

' === 4. Xóa bình luận ===
User -> UI: 16. Chọn xóa bình luận
activate UI
UI -> System: 17. Gửi yêu cầu xóa bình luận
activate System
System -> DB: 18. Xóa bình luận khỏi cơ sở dữ liệu
activate DB
DB - -> System: Đã xóa bình luận
deactivate DB
System - -> UI: 19. Trả kết quả xóa
deactivate System
UI - -> User: 20. Loại bỏ bình luận khỏi danh sách
deactivate UI

' === 5. Hiển thị số bình luận chưa đọc ===
User -> UI: 21. Mở danh sách nhiệm vụ
activate UI
UI -> System: 22. Yêu cầu số bình luận chưa đọc
activate System
System -> DB: 23. Truy vấn số bình luận chưa đọc của người dùng
activate DB
DB - -> System: Số bình luận chưa đọc
deactivate DB
System - -> UI: 24. Trả dữ liệu số chưa đọc
deactivate System
UI - -> User: 25. Hiển thị số lượng chưa đọc
deactivate UI

' === 6. Cập nhật trạng thái đã đọc ===
User -> UI: 26. Xem danh sách bình luận của nhiệm vụ
activate UI
UI -> System: 27. Gửi yêu cầu đánh dấu đã đọc
activate System
System -> DB: 28. Cập nhật trạng thái đã đọc
activate DB
DB - -> System: Đã cập nhật
deactivate DB
System - -> UI: 29. Trả kết quả cập nhật
deactivate System
UI - -> User: 30. Cập nhật lại số bình luận chưa đọc
deactivate UI

' === 7. Cập nhật bình luận theo thời gian thực ===
User -> UI: 31. Đang mở màn hình bình luận
activate UI
System -> UI: 32. Gửi thông báo thời gian thực\n(thêm / sửa / xóa bình luận)
activate System
UI - -> User: 33. Tự động làm mới danh sách bình luận
deactivate System
deactivate UI

deactivate User
@enduml

@startuml
!pragma useUnicode true
skinparam dpi 150
skinparam sequence {
  LifeLineBorderColor #3B82F6
  LifeLineBackgroundColor #E6F2FF
  ArrowColor #000000
  ParticipantFontSize 15
  BoxFontSize 15
  ParticipantBorderColor #3B82F6
  ParticipantBackgroundColor #E6F2FF
}
hide footbox

actor "Người dùng" as User
participant ":Giao diện" as UI
participant ":Hệ thống" as System
participant ":Cơ sở dữ liệu" as DB

activate User

User -> UI: 1. Mở chi tiết nhiệm vụ
activate UI
UI -> System: 2. Yêu cầu danh sách bình luận
activate System
System -> DB: 3. Lấy danh sách bình luận theo nhiệm vụ
activate DB
DB - -> System: Danh sách bình luận
deactivate DB
System - -> UI: 4. Gửi danh sách bình luận
deactivate System
UI - -> User: 5. Hiển thị bình luận
deactivate UI

User -> UI: 6. Nhập nội dung bình luận\n(kèm file hoặc gắn thẻ người dùng nếu có)
activate UI
UI -> System: 7. Gửi yêu cầu tạo bình luận mới
activate System
System -> DB: 8. Lưu bình luận vào cơ sở dữ liệu
activate DB
DB - -> System: Đã tạo bình luận
deactivate DB

System - -> UI: 9. Trả bình luận mới
deactivate System
UI - -> User: 10. Hiển thị bình luận mới\n(kèm file và gắn thẻ)
deactivate UI

User -> UI: 11. Chọn chỉnh sửa bình luận
activate UI
UI -> System: 12. Gửi yêu cầu cập nhật nội dung
activate System
System -> DB: 13. Cập nhật nội dung bình luận
activate DB
DB - -> System: Đã cập nhật bình luận
deactivate DB
System - -> UI: 14. Trả bình luận đã chỉnh sửa
deactivate System
UI - -> User: 15. Hiển thị nội dung mới
deactivate UI

User -> UI: 16. Chọn xóa bình luận
activate UI
UI -> System: 17. Gửi yêu cầu xóa bình luận
activate System
System -> DB: 18. Xóa bình luận khỏi cơ sở dữ liệu
activate DB
DB - -> System: Đã xóa bình luận
deactivate DB
System - -> UI: 19. Trả kết quả xóa
deactivate System
UI - -> User: 20. Loại bỏ bình luận khỏi danh sách
deactivate UI

User -> UI: 21. Mở danh sách nhiệm vụ
activate UI
UI -> System: 22. Yêu cầu số bình luận chưa đọc
activate System
System -> DB: 23. Truy vấn số bình luận chưa đọc của người dùng
activate DB
DB - -> System: Số bình luận chưa đọc
deactivate DB
System - -> UI: 24. Trả dữ liệu số chưa đọc
deactivate System
UI - -> User: 25. Hiển thị số lượng chưa đọc
deactivate UI

User -> UI: 26. Xem danh sách bình luận của nhiệm vụ
activate UI
UI -> System: 27. Gửi yêu cầu đánh dấu đã đọc
activate System
System -> DB: 28. Cập nhật trạng thái đã đọc
activate DB
DB - -> System: Đã cập nhật
deactivate DB
System - -> UI: 29. Trả kết quả cập nhật
deactivate System
UI - -> User: 30. Cập nhật lại số bình luận chưa đọc
deactivate UI

User -> UI: 31. Đang mở màn hình bình luận
activate UI
System -> UI: 32. Gửi thông báo thời gian thực\n(thêm / sửa / xóa bình luận)
activate System
UI - -> User: 33. Tự động làm mới danh sách bình luận
deactivate System
deactivate UI

deactivate User
@enduml

PlantUML version 1.2022.7(Mon Aug 22 17:01:30 UTC 2022)
(GPL source distribution)
Java Runtime: OpenJDK Runtime Environment
JVM: OpenJDK 64-Bit Server VM
Default Encoding: UTF-8
Language: en
Country: null
--></g></svg>