<?xml version="1.0" encoding="UTF-8" standalone="no"?><svg xmlns="http://www.w3.org/2000/svg" xmlns:xlink="http://www.w3.org/1999/xlink" contentStyleType="text/css" height="2120.3125px" preserveAspectRatio="none" style="width:1696px;height:2120px;background:#FFFFFF;" version="1.1" viewBox="0 0 1696 2120" width="1696.875px" zoomAndPan="magnify"><defs/><g><rect fill="#E6F2FF" height="1939.9658" style="stroke:#3B82F6;stroke-width:1.5625;" width="15.625" x="67.1875" y="142.6514"/><rect fill="#E6F2FF" height="293.4326" style="stroke:#3B82F6;stroke-width:1.5625;" width="15.625" x="523.4375" y="175.6714"/><rect fill="#E6F2FF" height="227.6001" style="stroke:#3B82F6;stroke-width:1.5625;" width="15.625" x="523.4375" y="514.624"/><rect fill="#E6F2FF" height="227.6001" style="stroke:#3B82F6;stroke-width:1.5625;" width="15.625" x="523.4375" y="787.7441"/><rect fill="#E6F2FF" height="318.6401" style="stroke:#3B82F6;stroke-width:1.5625;" width="15.625" x="523.4375" y="1060.8643"/><rect fill="#E6F2FF" height="318.6401" style="stroke:#3B82F6;stroke-width:1.5625;" width="15.625" x="523.4375" y="1425.0244"/><rect fill="#E6F2FF" height="293.4326" style="stroke:#3B82F6;stroke-width:1.5625;" width="15.625" x="523.4375" y="1789.1846"/><rect fill="#E6F2FF" height="136.5601" style="stroke:#3B82F6;stroke-width:1.5625;" width="15.625" x="1042.1875" y="221.1914"/><rect fill="#E6F2FF" height="136.5601" style="stroke:#3B82F6;stroke-width:1.5625;" width="15.625" x="1042.1875" y="560.144"/><rect fill="#E6F2FF" height="136.5601" style="stroke:#3B82F6;stroke-width:1.5625;" width="15.625" x="1042.1875" y="833.2642"/><rect fill="#E6F2FF" height="227.6001" style="stroke:#3B82F6;stroke-width:1.5625;" width="15.625" x="1042.1875" y="1106.3843"/><rect fill="#E6F2FF" height="227.6001" style="stroke:#3B82F6;stroke-width:1.5625;" width="15.625" x="1042.1875" y="1470.5444"/><rect fill="#E6F2FF" height="136.5601" style="stroke:#3B82F6;stroke-width:1.5625;" width="15.625" x="1042.1875" y="1834.7046"/><rect fill="#E6F2FF" height="45.52" style="stroke:#3B82F6;stroke-width:1.5625;" width="15.625" x="1592.1875" y="266.7114"/><rect fill="#E6F2FF" height="45.52" style="stroke:#3B82F6;stroke-width:1.5625;" width="15.625" x="1592.1875" y="605.6641"/><rect fill="#E6F2FF" height="45.52" style="stroke:#3B82F6;stroke-width:1.5625;" width="15.625" x="1592.1875" y="878.7842"/><rect fill="#E6F2FF" height="45.52" style="stroke:#3B82F6;stroke-width:1.5625;" width="15.625" x="1592.1875" y="1151.9043"/><rect fill="#E6F2FF" height="45.52" style="stroke:#3B82F6;stroke-width:1.5625;" width="15.625" x="1592.1875" y="1242.9443"/><rect fill="#E6F2FF" height="45.52" style="stroke:#3B82F6;stroke-width:1.5625;" width="15.625" x="1592.1875" y="1516.0645"/><rect fill="#E6F2FF" height="45.52" style="stroke:#3B82F6;stroke-width:1.5625;" width="15.625" x="1592.1875" y="1607.1045"/><rect fill="#E6F2FF" height="45.52" style="stroke:#3B82F6;stroke-width:1.5625;" width="15.625" x="1592.1875" y="1880.2246"/><line style="stroke:#3B82F6;stroke-width:0.78125;stroke-dasharray:5.0,5.0;" x1="75" x2="75" y1="127.0264" y2="2110.7422"/><line style="stroke:#3B82F6;stroke-width:0.78125;stroke-dasharray:5.0,5.0;" x1="530.4688" x2="530.4688" y1="127.0264" y2="2110.7422"/><line style="stroke:#3B82F6;stroke-width:0.78125;stroke-dasharray:5.0,5.0;" x1="1050" x2="1050" y1="127.0264" y2="2110.7422"/><line style="stroke:#3B82F6;stroke-width:0.78125;stroke-dasharray:5.0,5.0;" x1="1599.2188" x2="1599.2188" y1="127.0264" y2="2110.7422"/><text fill="#000000" font-family="sans-serif" font-size="21.875" lengthAdjust="spacing" textLength="125" x="7.8125" y="121.8674">Người dùng</text><ellipse cx="75" cy="21.0938" fill="#E2E2F0" rx="12.5" ry="12.5" style="stroke:#181818;stroke-width:0.78125;"/><path d="M75,33.5938 L75,75.7813 M54.6875,46.0938 L95.3125,46.0938 M75,75.7813 L54.6875,99.2188 M75,75.7813 L95.3125,99.2188 " fill="none" style="stroke:#181818;stroke-width:0.78125;"/><rect fill="#E6F2FF" height="49.1577" rx="3.9063" ry="3.9063" style="stroke:#3B82F6;stroke-width:0.78125;" width="135.9375" x="463.2813" y="76.3062"/><text fill="#000000" font-family="sans-serif" font-size="23.4375" lengthAdjust="spacing" textLength="114.0625" x="474.2188" y="108.9989">:Giao diện</text><rect fill="#E6F2FF" height="49.1577" rx="3.9063" ry="3.9063" style="stroke:#3B82F6;stroke-width:0.78125;" width="134.375" x="982.8125" y="76.3062"/><text fill="#000000" font-family="sans-serif" font-size="23.4375" lengthAdjust="spacing" textLength="112.5" x="993.75" y="108.9989">:Hệ thống</text><rect fill="#E6F2FF" height="49.1577" rx="3.9063" ry="3.9063" style="stroke:#3B82F6;stroke-width:0.78125;" width="176.5625" x="1511.7188" y="76.3062"/><text fill="#000000" font-family="sans-serif" font-size="23.4375" lengthAdjust="spacing" textLength="154.6875" x="1522.6563" y="108.9989">:Cơ sở dữ liệu</text><rect fill="#E6F2FF" height="1939.9658" style="stroke:#3B82F6;stroke-width:1.5625;" width="15.625" x="67.1875" y="142.6514"/><rect fill="#E6F2FF" height="293.4326" style="stroke:#3B82F6;stroke-width:1.5625;" width="15.625" x="523.4375" y="175.6714"/><rect fill="#E6F2FF" height="227.6001" style="stroke:#3B82F6;stroke-width:1.5625;" width="15.625" x="523.4375" y="514.624"/><rect fill="#E6F2FF" height="227.6001" style="stroke:#3B82F6;stroke-width:1.5625;" width="15.625" x="523.4375" y="787.7441"/><rect fill="#E6F2FF" height="318.6401" style="stroke:#3B82F6;stroke-width:1.5625;" width="15.625" x="523.4375" y="1060.8643"/><rect fill="#E6F2FF" height="318.6401" style="stroke:#3B82F6;stroke-width:1.5625;" width="15.625" x="523.4375" y="1425.0244"/><rect fill="#E6F2FF" height="293.4326" style="stroke:#3B82F6;stroke-width:1.5625;" width="15.625" x="523.4375" y="1789.1846"/><rect fill="#E6F2FF" height="136.5601" style="stroke:#3B82F6;stroke-width:1.5625;" width="15.625" x="1042.1875" y="221.1914"/><rect fill="#E6F2FF" height="136.5601" style="stroke:#3B82F6;stroke-width:1.5625;" width="15.625" x="1042.1875" y="560.144"/><rect fill="#E6F2FF" height="136.5601" style="stroke:#3B82F6;stroke-width:1.5625;" width="15.625" x="1042.1875" y="833.2642"/><rect fill="#E6F2FF" height="227.6001" style="stroke:#3B82F6;stroke-width:1.5625;" width="15.625" x="1042.1875" y="1106.3843"/><rect fill="#E6F2FF" height="227.6001" style="stroke:#3B82F6;stroke-width:1.5625;" width="15.625" x="1042.1875" y="1470.5444"/><rect fill="#E6F2FF" height="136.5601" style="stroke:#3B82F6;stroke-width:1.5625;" width="15.625" x="1042.1875" y="1834.7046"/><rect fill="#E6F2FF" height="45.52" style="stroke:#3B82F6;stroke-width:1.5625;" width="15.625" x="1592.1875" y="266.7114"/><rect fill="#E6F2FF" height="45.52" style="stroke:#3B82F6;stroke-width:1.5625;" width="15.625" x="1592.1875" y="605.6641"/><rect fill="#E6F2FF" height="45.52" style="stroke:#3B82F6;stroke-width:1.5625;" width="15.625" x="1592.1875" y="878.7842"/><rect fill="#E6F2FF" height="45.52" style="stroke:#3B82F6;stroke-width:1.5625;" width="15.625" x="1592.1875" y="1151.9043"/><rect fill="#E6F2FF" height="45.52" style="stroke:#3B82F6;stroke-width:1.5625;" width="15.625" x="1592.1875" y="1242.9443"/><rect fill="#E6F2FF" height="45.52" style="stroke:#3B82F6;stroke-width:1.5625;" width="15.625" x="1592.1875" y="1516.0645"/><rect fill="#E6F2FF" height="45.52" style="stroke:#3B82F6;stroke-width:1.5625;" width="15.625" x="1592.1875" y="1607.1045"/><rect fill="#E6F2FF" height="45.52" style="stroke:#3B82F6;stroke-width:1.5625;" width="15.625" x="1592.1875" y="1880.2246"/><polygon fill="#000000" points="504.6875,169.4214,520.3125,175.6714,504.6875,181.9214,510.9375,175.6714" style="stroke:#000000;stroke-width:1.5625;"/><line style="stroke:#000000;stroke-width:1.5625;" x1="82.8125" x2="514.0625" y1="175.6714" y2="175.6714"/><text fill="#000000" font-family="sans-serif" font-size="20.3125" lengthAdjust="spacing" textLength="326.5625" x="93.75" y="167.7559">1. Mở trang chi tiết dự án / nhóm</text><polygon fill="#000000" points="1023.4375,214.9414,1039.0625,221.1914,1023.4375,227.4414,1029.6875,221.1914" style="stroke:#000000;stroke-width:1.5625;"/><line style="stroke:#000000;stroke-width:1.5625;" x1="539.0625" x2="1032.8125" y1="221.1914" y2="221.1914"/><text fill="#000000" font-family="sans-serif" font-size="20.3125" lengthAdjust="spacing" textLength="378.125" x="550" y="213.2759">2. Yêu cầu permission của người dùng</text><polygon fill="#000000" points="1573.4375,260.4614,1589.0625,266.7114,1573.4375,272.9614,1579.6875,266.7114" style="stroke:#000000;stroke-width:1.5625;"/><line style="stroke:#000000;stroke-width:1.5625;" x1="1057.8125" x2="1582.8125" y1="266.7114" y2="266.7114"/><text fill="#000000" font-family="sans-serif" font-size="20.3125" lengthAdjust="spacing" textLength="384.375" x="1068.75" y="258.7959">3. Lấy vai trò và quyền của người dùng</text><polygon fill="#000000" points="1075,305.9814,1059.375,312.2314,1075,318.4814,1068.75,312.2314" style="stroke:#000000;stroke-width:1.5625;"/><line style="stroke:#000000;stroke-width:1.5625;stroke-dasharray:2.0,2.0;" x1="1065.625" x2="1598.4375" y1="312.2314" y2="312.2314"/><text fill="#000000" font-family="sans-serif" font-size="20.3125" lengthAdjust="spacing" textLength="156.25" x="1084.375" y="304.3159">Vai trò + quyền</text><polygon fill="#000000" points="556.25,351.5015,540.625,357.7515,556.25,364.0015,550,357.7515" style="stroke:#000000;stroke-width:1.5625;"/><line style="stroke:#000000;stroke-width:1.5625;" x1="546.875" x2="1048.4375" y1="357.7515" y2="357.7515"/><text fill="#000000" font-family="sans-serif" font-size="20.3125" lengthAdjust="spacing" textLength="281.25" x="565.625" y="349.836">4. Trả danh sách permission</text><line style="stroke:#000000;stroke-width:1.5625;" x1="539.0625" x2="604.6875" y1="403.2715" y2="403.2715"/><line style="stroke:#000000;stroke-width:1.5625;" x1="604.6875" x2="604.6875" y1="403.2715" y2="423.584"/><line style="stroke:#000000;stroke-width:1.5625;" x1="540.625" x2="604.6875" y1="423.584" y2="423.584"/><polygon fill="#000000" points="556.25,417.334,540.625,423.584,556.25,429.834,550,423.584" style="stroke:#000000;stroke-width:1.5625;"/><text fill="#000000" font-family="sans-serif" font-size="20.3125" lengthAdjust="spacing" textLength="368.75" x="550" y="395.356">5. Ẩn/hiện các chức năng theo quyền</text><polygon fill="#000000" points="100,462.854,84.375,469.104,100,475.354,93.75,469.104" style="stroke:#000000;stroke-width:1.5625;"/><line style="stroke:#000000;stroke-width:1.5625;stroke-dasharray:2.0,2.0;" x1="90.625" x2="529.6875" y1="469.104" y2="469.104"/><text fill="#000000" font-family="sans-serif" font-size="20.3125" lengthAdjust="spacing" textLength="375" x="109.375" y="461.1885">6. Hiển thị giao diện theo phân quyền</text><polygon fill="#000000" points="504.6875,508.374,520.3125,514.624,504.6875,520.874,510.9375,514.624" style="stroke:#000000;stroke-width:1.5625;"/><line style="stroke:#000000;stroke-width:1.5625;" x1="82.8125" x2="514.0625" y1="514.624" y2="514.624"/><text fill="#000000" font-family="sans-serif" font-size="20.3125" lengthAdjust="spacing" textLength="337.5" x="93.75" y="506.7085">7. Mở danh sách thành viên dự án</text><polygon fill="#000000" points="1023.4375,553.894,1039.0625,560.144,1023.4375,566.394,1029.6875,560.144" style="stroke:#000000;stroke-width:1.5625;"/><line style="stroke:#000000;stroke-width:1.5625;" x1="539.0625" x2="1032.8125" y1="560.144" y2="560.144"/><text fill="#000000" font-family="sans-serif" font-size="20.3125" lengthAdjust="spacing" textLength="371.875" x="550" y="552.2285">8. Lấy danh sách thành viên + vai trò</text><polygon fill="#000000" points="1573.4375,599.4141,1589.0625,605.6641,1573.4375,611.9141,1579.6875,605.6641" style="stroke:#000000;stroke-width:1.5625;"/><line style="stroke:#000000;stroke-width:1.5625;" x1="1057.8125" x2="1582.8125" y1="605.6641" y2="605.6641"/><text fill="#000000" font-family="sans-serif" font-size="20.3125" lengthAdjust="spacing" textLength="354.6875" x="1068.75" y="597.7486">9. Truy vấn dữ liệu thành viên dự án</text><polygon fill="#000000" points="1075,644.9341,1059.375,651.1841,1075,657.4341,1068.75,651.1841" style="stroke:#000000;stroke-width:1.5625;"/><line style="stroke:#000000;stroke-width:1.5625;stroke-dasharray:2.0,2.0;" x1="1065.625" x2="1598.4375" y1="651.1841" y2="651.1841"/><text fill="#000000" font-family="sans-serif" font-size="20.3125" lengthAdjust="spacing" textLength="198.4375" x="1084.375" y="643.2686">Danh sách + vai trò</text><polygon fill="#000000" points="556.25,690.4541,540.625,696.7041,556.25,702.9541,550,696.7041" style="stroke:#000000;stroke-width:1.5625;"/><line style="stroke:#000000;stroke-width:1.5625;stroke-dasharray:2.0,2.0;" x1="546.875" x2="1048.4375" y1="696.7041" y2="696.7041"/><text fill="#000000" font-family="sans-serif" font-size="20.3125" lengthAdjust="spacing" textLength="289.0625" x="565.625" y="688.7886">10. Trả danh sách thành viên</text><polygon fill="#000000" points="100,735.9741,84.375,742.2241,100,748.4741,93.75,742.2241" style="stroke:#000000;stroke-width:1.5625;"/><line style="stroke:#000000;stroke-width:1.5625;stroke-dasharray:2.0,2.0;" x1="90.625" x2="529.6875" y1="742.2241" y2="742.2241"/><text fill="#000000" font-family="sans-serif" font-size="20.3125" lengthAdjust="spacing" textLength="387.5" x="109.375" y="734.3086">11. Hiển thị thành viên + badge vai trò</text><polygon fill="#000000" points="504.6875,781.4941,520.3125,787.7441,504.6875,793.9941,510.9375,787.7441" style="stroke:#000000;stroke-width:1.5625;"/><line style="stroke:#000000;stroke-width:1.5625;" x1="82.8125" x2="514.0625" y1="787.7441" y2="787.7441"/><text fill="#000000" font-family="sans-serif" font-size="20.3125" lengthAdjust="spacing" textLength="389.0625" x="93.75" y="779.8286">12. Yêu cầu cập nhật vai trò thành viên</text><polygon fill="#000000" points="1023.4375,827.0142,1039.0625,833.2642,1023.4375,839.5142,1029.6875,833.2642" style="stroke:#000000;stroke-width:1.5625;"/><line style="stroke:#000000;stroke-width:1.5625;" x1="539.0625" x2="1032.8125" y1="833.2642" y2="833.2642"/><text fill="#000000" font-family="sans-serif" font-size="20.3125" lengthAdjust="spacing" textLength="317.1875" x="550" y="825.3487">13. Gửi yêu cầu cập nhật vai trò</text><polygon fill="#000000" points="1573.4375,872.5342,1589.0625,878.7842,1573.4375,885.0342,1579.6875,878.7842" style="stroke:#000000;stroke-width:1.5625;"/><line style="stroke:#000000;stroke-width:1.5625;" x1="1057.8125" x2="1582.8125" y1="878.7842" y2="878.7842"/><text fill="#000000" font-family="sans-serif" font-size="20.3125" lengthAdjust="spacing" textLength="435.9375" x="1068.75" y="870.8687">14. Cập nhật vai trò người dùng trong dự án</text><polygon fill="#000000" points="1075,918.0542,1059.375,924.3042,1075,930.5542,1068.75,924.3042" style="stroke:#000000;stroke-width:1.5625;"/><line style="stroke:#000000;stroke-width:1.5625;stroke-dasharray:2.0,2.0;" x1="1065.625" x2="1598.4375" y1="924.3042" y2="924.3042"/><text fill="#000000" font-family="sans-serif" font-size="20.3125" lengthAdjust="spacing" textLength="121.875" x="1084.375" y="916.3887">Đã cập nhật</text><polygon fill="#000000" points="556.25,963.5742,540.625,969.8242,556.25,976.0742,550,969.8242" style="stroke:#000000;stroke-width:1.5625;"/><line style="stroke:#000000;stroke-width:1.5625;stroke-dasharray:2.0,2.0;" x1="546.875" x2="1048.4375" y1="969.8242" y2="969.8242"/><text fill="#000000" font-family="sans-serif" font-size="20.3125" lengthAdjust="spacing" textLength="312.5" x="565.625" y="961.9087">15. Trả kết quả cập nhật vai trò</text><polygon fill="#000000" points="100,1009.0942,84.375,1015.3442,100,1021.5942,93.75,1015.3442" style="stroke:#000000;stroke-width:1.5625;"/><line style="stroke:#000000;stroke-width:1.5625;stroke-dasharray:2.0,2.0;" x1="90.625" x2="529.6875" y1="1015.3442" y2="1015.3442"/><text fill="#000000" font-family="sans-serif" font-size="20.3125" lengthAdjust="spacing" textLength="350" x="109.375" y="1007.4287">16. Hiển thị danh sách đã cập nhật</text><polygon fill="#000000" points="504.6875,1054.6143,520.3125,1060.8643,504.6875,1067.1143,510.9375,1060.8643" style="stroke:#000000;stroke-width:1.5625;"/><line style="stroke:#000000;stroke-width:1.5625;" x1="82.8125" x2="514.0625" y1="1060.8643" y2="1060.8643"/><text fill="#000000" font-family="sans-serif" font-size="20.3125" lengthAdjust="spacing" textLength="390.625" x="93.75" y="1052.9488">17. Thực hiện hành động trên nhiệm vụ</text><polygon fill="#000000" points="1023.4375,1100.1343,1039.0625,1106.3843,1023.4375,1112.6343,1029.6875,1106.3843" style="stroke:#000000;stroke-width:1.5625;"/><line style="stroke:#000000;stroke-width:1.5625;" x1="539.0625" x2="1032.8125" y1="1106.3843" y2="1106.3843"/><text fill="#000000" font-family="sans-serif" font-size="20.3125" lengthAdjust="spacing" textLength="342.1875" x="550" y="1098.4688">18. Gửi yêu cầu thao tác nhiệm vụ</text><polygon fill="#000000" points="1573.4375,1145.6543,1589.0625,1151.9043,1573.4375,1158.1543,1579.6875,1151.9043" style="stroke:#000000;stroke-width:1.5625;"/><line style="stroke:#000000;stroke-width:1.5625;" x1="1057.8125" x2="1582.8125" y1="1151.9043" y2="1151.9043"/><text fill="#000000" font-family="sans-serif" font-size="20.3125" lengthAdjust="spacing" textLength="412.5" x="1068.75" y="1143.9888">19. Kiểm tra quyền và thông tin nhiệm vụ</text><polygon fill="#000000" points="1075,1191.1743,1059.375,1197.4243,1075,1203.6743,1068.75,1197.4243" style="stroke:#000000;stroke-width:1.5625;"/><line style="stroke:#000000;stroke-width:1.5625;stroke-dasharray:2.0,2.0;" x1="1065.625" x2="1598.4375" y1="1197.4243" y2="1197.4243"/><text fill="#000000" font-family="sans-serif" font-size="20.3125" lengthAdjust="spacing" textLength="259.375" x="1084.375" y="1189.5088">Dữ liệu vai trò + nhiệm vụ</text><polygon fill="#000000" points="1573.4375,1236.6943,1589.0625,1242.9443,1573.4375,1249.1943,1579.6875,1242.9443" style="stroke:#000000;stroke-width:1.5625;"/><line style="stroke:#000000;stroke-width:1.5625;" x1="1057.8125" x2="1582.8125" y1="1242.9443" y2="1242.9443"/><text fill="#000000" font-family="sans-serif" font-size="20.3125" lengthAdjust="spacing" textLength="504.6875" x="1068.75" y="1235.0288">20. Cập nhật nhiệm vụ (tạo/sửa/xóa/đổi trạng thái)</text><polygon fill="#000000" points="1075,1282.2144,1059.375,1288.4644,1075,1294.7144,1068.75,1288.4644" style="stroke:#000000;stroke-width:1.5625;"/><line style="stroke:#000000;stroke-width:1.5625;stroke-dasharray:2.0,2.0;" x1="1065.625" x2="1598.4375" y1="1288.4644" y2="1288.4644"/><text fill="#000000" font-family="sans-serif" font-size="20.3125" lengthAdjust="spacing" textLength="220.3125" x="1084.375" y="1280.5489">Đã cập nhật nhiệm vụ</text><polygon fill="#000000" points="556.25,1327.7344,540.625,1333.9844,556.25,1340.2344,550,1333.9844" style="stroke:#000000;stroke-width:1.5625;"/><line style="stroke:#000000;stroke-width:1.5625;stroke-dasharray:2.0,2.0;" x1="546.875" x2="1048.4375" y1="1333.9844" y2="1333.9844"/><text fill="#000000" font-family="sans-serif" font-size="20.3125" lengthAdjust="spacing" textLength="337.5" x="565.625" y="1326.0689">21. Trả kết quả thao tác nhiệm vụ</text><polygon fill="#000000" points="100,1373.2544,84.375,1379.5044,100,1385.7544,93.75,1379.5044" style="stroke:#000000;stroke-width:1.5625;"/><line style="stroke:#000000;stroke-width:1.5625;stroke-dasharray:2.0,2.0;" x1="90.625" x2="529.6875" y1="1379.5044" y2="1379.5044"/><text fill="#000000" font-family="sans-serif" font-size="20.3125" lengthAdjust="spacing" textLength="323.4375" x="109.375" y="1371.5889">22. Cập nhật giao diện nhiệm vụ</text><polygon fill="#000000" points="504.6875,1418.7744,520.3125,1425.0244,504.6875,1431.2744,510.9375,1425.0244" style="stroke:#000000;stroke-width:1.5625;"/><line style="stroke:#000000;stroke-width:1.5625;" x1="82.8125" x2="514.0625" y1="1425.0244" y2="1425.0244"/><text fill="#000000" font-family="sans-serif" font-size="20.3125" lengthAdjust="spacing" textLength="365.625" x="93.75" y="1417.1089">23. Chọn chuyển quyền leader dự án</text><polygon fill="#000000" points="1023.4375,1464.2944,1039.0625,1470.5444,1023.4375,1476.7944,1029.6875,1470.5444" style="stroke:#000000;stroke-width:1.5625;"/><line style="stroke:#000000;stroke-width:1.5625;" x1="539.0625" x2="1032.8125" y1="1470.5444" y2="1470.5444"/><text fill="#000000" font-family="sans-serif" font-size="20.3125" lengthAdjust="spacing" textLength="368.75" x="550" y="1462.6289">24. Gửi yêu cầu chuyển quyền leader</text><polygon fill="#000000" points="1573.4375,1509.8145,1589.0625,1516.0645,1573.4375,1522.3145,1579.6875,1516.0645" style="stroke:#000000;stroke-width:1.5625;"/><line style="stroke:#000000;stroke-width:1.5625;" x1="1057.8125" x2="1582.8125" y1="1516.0645" y2="1516.0645"/><text fill="#000000" font-family="sans-serif" font-size="20.3125" lengthAdjust="spacing" textLength="315.625" x="1068.75" y="1508.149">25. Lấy thông tin leader hiện tại</text><polygon fill="#000000" points="1075,1555.3345,1059.375,1561.5845,1075,1567.8345,1068.75,1561.5845" style="stroke:#000000;stroke-width:1.5625;"/><line style="stroke:#000000;stroke-width:1.5625;stroke-dasharray:2.0,2.0;" x1="1065.625" x2="1598.4375" y1="1561.5845" y2="1561.5845"/><text fill="#000000" font-family="sans-serif" font-size="20.3125" lengthAdjust="spacing" textLength="148.4375" x="1084.375" y="1553.669">Leader hiện tại</text><polygon fill="#000000" points="1573.4375,1600.8545,1589.0625,1607.1045,1573.4375,1613.3545,1579.6875,1607.1045" style="stroke:#000000;stroke-width:1.5625;"/><line style="stroke:#000000;stroke-width:1.5625;" x1="1057.8125" x2="1582.8125" y1="1607.1045" y2="1607.1045"/><text fill="#000000" font-family="sans-serif" font-size="20.3125" lengthAdjust="spacing" textLength="345.3125" x="1068.75" y="1599.189">26. Cập nhật leader mới vào dự án</text><polygon fill="#000000" points="1075,1646.3745,1059.375,1652.6245,1075,1658.8745,1068.75,1652.6245" style="stroke:#000000;stroke-width:1.5625;"/><line style="stroke:#000000;stroke-width:1.5625;stroke-dasharray:2.0,2.0;" x1="1065.625" x2="1598.4375" y1="1652.6245" y2="1652.6245"/><text fill="#000000" font-family="sans-serif" font-size="20.3125" lengthAdjust="spacing" textLength="190.625" x="1084.375" y="1644.709">Đã cập nhật leader</text><polygon fill="#000000" points="556.25,1691.8945,540.625,1698.1445,556.25,1704.3945,550,1698.1445" style="stroke:#000000;stroke-width:1.5625;"/><line style="stroke:#000000;stroke-width:1.5625;stroke-dasharray:2.0,2.0;" x1="546.875" x2="1048.4375" y1="1698.1445" y2="1698.1445"/><text fill="#000000" font-family="sans-serif" font-size="20.3125" lengthAdjust="spacing" textLength="429.6875" x="565.625" y="1690.229">27. Trả kết quả chuyển quyền trưởng dự án</text><polygon fill="#000000" points="100,1737.4146,84.375,1743.6646,100,1749.9146,93.75,1743.6646" style="stroke:#000000;stroke-width:1.5625;"/><line style="stroke:#000000;stroke-width:1.5625;stroke-dasharray:2.0,2.0;" x1="90.625" x2="529.6875" y1="1743.6646" y2="1743.6646"/><text fill="#000000" font-family="sans-serif" font-size="20.3125" lengthAdjust="spacing" textLength="228.125" x="109.375" y="1735.7491">28. Hiển thị leader mới</text><polygon fill="#000000" points="504.6875,1782.9346,520.3125,1789.1846,504.6875,1795.4346,510.9375,1789.1846" style="stroke:#000000;stroke-width:1.5625;"/><line style="stroke:#000000;stroke-width:1.5625;" x1="82.8125" x2="514.0625" y1="1789.1846" y2="1789.1846"/><text fill="#000000" font-family="sans-serif" font-size="20.3125" lengthAdjust="spacing" textLength="292.1875" x="93.75" y="1781.2691">29. Tải lại trang dự án / nhóm</text><polygon fill="#000000" points="1023.4375,1828.4546,1039.0625,1834.7046,1023.4375,1840.9546,1029.6875,1834.7046" style="stroke:#000000;stroke-width:1.5625;"/><line style="stroke:#000000;stroke-width:1.5625;" x1="539.0625" x2="1032.8125" y1="1834.7046" y2="1834.7046"/><text fill="#000000" font-family="sans-serif" font-size="20.3125" lengthAdjust="spacing" textLength="275" x="550" y="1826.7891">30. Yêu cầu permission mới</text><polygon fill="#000000" points="1573.4375,1873.9746,1589.0625,1880.2246,1573.4375,1886.4746,1579.6875,1880.2246" style="stroke:#000000;stroke-width:1.5625;"/><line style="stroke:#000000;stroke-width:1.5625;" x1="1057.8125" x2="1582.8125" y1="1880.2246" y2="1880.2246"/><text fill="#000000" font-family="sans-serif" font-size="20.3125" lengthAdjust="spacing" textLength="265.625" x="1068.75" y="1872.3091">31. Lấy lại vai trò và quyền</text><polygon fill="#000000" points="1075,1919.4946,1059.375,1925.7446,1075,1931.9946,1068.75,1925.7446" style="stroke:#000000;stroke-width:1.5625;"/><line style="stroke:#000000;stroke-width:1.5625;stroke-dasharray:2.0,2.0;" x1="1065.625" x2="1598.4375" y1="1925.7446" y2="1925.7446"/><text fill="#000000" font-family="sans-serif" font-size="20.3125" lengthAdjust="spacing" textLength="153.125" x="1084.375" y="1917.8291">Permission mới</text><polygon fill="#000000" points="556.25,1965.0146,540.625,1971.2646,556.25,1977.5146,550,1971.2646" style="stroke:#000000;stroke-width:1.5625;"/><line style="stroke:#000000;stroke-width:1.5625;stroke-dasharray:2.0,2.0;" x1="546.875" x2="1048.4375" y1="1971.2646" y2="1971.2646"/><text fill="#000000" font-family="sans-serif" font-size="20.3125" lengthAdjust="spacing" textLength="228.125" x="565.625" y="1963.3492">32. Trả permission mới</text><line style="stroke:#000000;stroke-width:1.5625;" x1="539.0625" x2="604.6875" y1="2016.7847" y2="2016.7847"/><line style="stroke:#000000;stroke-width:1.5625;" x1="604.6875" x2="604.6875" y1="2016.7847" y2="2037.0972"/><line style="stroke:#000000;stroke-width:1.5625;" x1="540.625" x2="604.6875" y1="2037.0972" y2="2037.0972"/><polygon fill="#000000" points="556.25,2030.8472,540.625,2037.0972,556.25,2043.3472,550,2037.0972" style="stroke:#000000;stroke-width:1.5625;"/><text fill="#000000" font-family="sans-serif" font-size="20.3125" lengthAdjust="spacing" textLength="481.25" x="550" y="2008.8692">33. Cập nhật hiển thị chức năng theo quyền mới</text><polygon fill="#000000" points="92.1875,2076.3672,76.5625,2082.6172,92.1875,2088.8672,85.9375,2082.6172" style="stroke:#000000;stroke-width:1.5625;"/><line style="stroke:#000000;stroke-width:1.5625;stroke-dasharray:2.0,2.0;" x1="82.8125" x2="529.6875" y1="2082.6172" y2="2082.6172"/><text fill="#000000" font-family="sans-serif" font-size="20.3125" lengthAdjust="spacing" textLength="403.125" x="101.5625" y="2074.7017">34. Giao diện được cập nhật phân quyền</text><!--MD5=[187f1e72ee62ef0021655b88f2f3fb74]
@startuml
!pragma useUnicode true
skinparam dpi 150
skinparam sequence {
  LifeLineBorderColor #3B82F6
  LifeLineBackgroundColor #E6F2FF
  ArrowColor #000000
  ParticipantFontSize 15
  BoxFontSize 15
  ParticipantBorderColor #3B82F6
  ParticipantBackgroundColor #E6F2FF
}
hide footbox

actor "Người dùng" as User
participant ":Giao diện" as UI
participant ":Hệ thống" as System
participant ":Cơ sở dữ liệu" as DB

activate User

' === 1. Mở dự án / nhóm và tải quyền ===
User -> UI: 1. Mở trang chi tiết dự án / nhóm
activate UI
UI -> System: 2. Yêu cầu permission của người dùng
activate System
System -> DB: 3. Lấy vai trò và quyền của người dùng
activate DB
DB - -> System: Vai trò + quyền
deactivate DB

System -> UI: 4. Trả danh sách permission
deactivate System
UI -> UI: 5. Ẩn/hiện các chức năng theo quyền
UI - -> User: 6. Hiển thị giao diện theo phân quyền
deactivate UI

' === 2. Quản lý vai trò thành viên dự án ===
User -> UI: 7. Mở danh sách thành viên dự án
activate UI
UI -> System: 8. Lấy danh sách thành viên + vai trò
activate System
System -> DB: 9. Truy vấn dữ liệu thành viên dự án
activate DB
DB - -> System: Danh sách + vai trò
deactivate DB

System - -> UI: 10. Trả danh sách thành viên
deactivate System
UI - -> User: 11. Hiển thị thành viên + badge vai trò
deactivate UI

User -> UI: 12. Yêu cầu cập nhật vai trò thành viên
activate UI
UI -> System: 13. Gửi yêu cầu cập nhật vai trò
activate System
System -> DB: 14. Cập nhật vai trò người dùng trong dự án
activate DB
DB - -> System: Đã cập nhật
deactivate DB

System - -> UI: 15. Trả kết quả cập nhật vai trò
deactivate System
UI - -> User: 16. Hiển thị danh sách đã cập nhật
deactivate UI

' === 3. Thao tác nhiệm vụ theo quyền ===
User -> UI: 17. Thực hiện hành động trên nhiệm vụ
activate UI
UI -> System: 18. Gửi yêu cầu thao tác nhiệm vụ
activate System

System -> DB: 19. Kiểm tra quyền và thông tin nhiệm vụ
activate DB
DB - -> System: Dữ liệu vai trò + nhiệm vụ
deactivate DB

System -> DB: 20. Cập nhật nhiệm vụ (tạo/sửa/xóa/đổi trạng thái)
activate DB
DB - -> System: Đã cập nhật nhiệm vụ
deactivate DB

System - -> UI: 21. Trả kết quả thao tác nhiệm vụ
deactivate System
UI - -> User: 22. Cập nhật giao diện nhiệm vụ
deactivate UI

' === 4. Chuyển quyền trưởng dự án ===
User -> UI: 23. Chọn chuyển quyền leader dự án
activate UI
UI -> System: 24. Gửi yêu cầu chuyển quyền leader
activate System

System -> DB: 25. Lấy thông tin leader hiện tại
activate DB
DB - -> System: Leader hiện tại
deactivate DB

System -> DB: 26. Cập nhật leader mới vào dự án
activate DB
DB - -> System: Đã cập nhật leader
deactivate DB

System - -> UI: 27. Trả kết quả chuyển quyền trưởng dự án
deactivate System
UI - -> User: 28. Hiển thị leader mới
deactivate UI

' === 5. Làm mới giao diện theo phân quyền mới ===
User -> UI: 29. Tải lại trang dự án / nhóm
activate UI
UI -> System: 30. Yêu cầu permission mới
activate System
System -> DB: 31. Lấy lại vai trò và quyền
activate DB
DB - -> System: Permission mới
deactivate DB

System - -> UI: 32. Trả permission mới
deactivate System
UI -> UI: 33. Cập nhật hiển thị chức năng theo quyền mới
UI - -> User: 34. Giao diện được cập nhật phân quyền
deactivate UI

deactivate User
@enduml

@startuml
!pragma useUnicode true
skinparam dpi 150
skinparam sequence {
  LifeLineBorderColor #3B82F6
  LifeLineBackgroundColor #E6F2FF
  ArrowColor #000000
  ParticipantFontSize 15
  BoxFontSize 15
  ParticipantBorderColor #3B82F6
  ParticipantBackgroundColor #E6F2FF
}
hide footbox

actor "Người dùng" as User
participant ":Giao diện" as UI
participant ":Hệ thống" as System
participant ":Cơ sở dữ liệu" as DB

activate User

User -> UI: 1. Mở trang chi tiết dự án / nhóm
activate UI
UI -> System: 2. Yêu cầu permission của người dùng
activate System
System -> DB: 3. Lấy vai trò và quyền của người dùng
activate DB
DB - -> System: Vai trò + quyền
deactivate DB

System -> UI: 4. Trả danh sách permission
deactivate System
UI -> UI: 5. Ẩn/hiện các chức năng theo quyền
UI - -> User: 6. Hiển thị giao diện theo phân quyền
deactivate UI

User -> UI: 7. Mở danh sách thành viên dự án
activate UI
UI -> System: 8. Lấy danh sách thành viên + vai trò
activate System
System -> DB: 9. Truy vấn dữ liệu thành viên dự án
activate DB
DB - -> System: Danh sách + vai trò
deactivate DB

System - -> UI: 10. Trả danh sách thành viên
deactivate System
UI - -> User: 11. Hiển thị thành viên + badge vai trò
deactivate UI

User -> UI: 12. Yêu cầu cập nhật vai trò thành viên
activate UI
UI -> System: 13. Gửi yêu cầu cập nhật vai trò
activate System
System -> DB: 14. Cập nhật vai trò người dùng trong dự án
activate DB
DB - -> System: Đã cập nhật
deactivate DB

System - -> UI: 15. Trả kết quả cập nhật vai trò
deactivate System
UI - -> User: 16. Hiển thị danh sách đã cập nhật
deactivate UI

User -> UI: 17. Thực hiện hành động trên nhiệm vụ
activate UI
UI -> System: 18. Gửi yêu cầu thao tác nhiệm vụ
activate System

System -> DB: 19. Kiểm tra quyền và thông tin nhiệm vụ
activate DB
DB - -> System: Dữ liệu vai trò + nhiệm vụ
deactivate DB

System -> DB: 20. Cập nhật nhiệm vụ (tạo/sửa/xóa/đổi trạng thái)
activate DB
DB - -> System: Đã cập nhật nhiệm vụ
deactivate DB

System - -> UI: 21. Trả kết quả thao tác nhiệm vụ
deactivate System
UI - -> User: 22. Cập nhật giao diện nhiệm vụ
deactivate UI

User -> UI: 23. Chọn chuyển quyền leader dự án
activate UI
UI -> System: 24. Gửi yêu cầu chuyển quyền leader
activate System

System -> DB: 25. Lấy thông tin leader hiện tại
activate DB
DB - -> System: Leader hiện tại
deactivate DB

System -> DB: 26. Cập nhật leader mới vào dự án
activate DB
DB - -> System: Đã cập nhật leader
deactivate DB

System - -> UI: 27. Trả kết quả chuyển quyền trưởng dự án
deactivate System
UI - -> User: 28. Hiển thị leader mới
deactivate UI

User -> UI: 29. Tải lại trang dự án / nhóm
activate UI
UI -> System: 30. Yêu cầu permission mới
activate System
System -> DB: 31. Lấy lại vai trò và quyền
activate DB
DB - -> System: Permission mới
deactivate DB

System - -> UI: 32. Trả permission mới
deactivate System
UI -> UI: 33. Cập nhật hiển thị chức năng theo quyền mới
UI - -> User: 34. Giao diện được cập nhật phân quyền
deactivate UI

deactivate User
@enduml

PlantUML version 1.2022.7(Mon Aug 22 17:01:30 UTC 2022)
(GPL source distribution)
Java Runtime: OpenJDK Runtime Environment
JVM: OpenJDK 64-Bit Server VM
Default Encoding: UTF-8
Language: en
Country: null
--></g></svg>