<?xml version="1.0" encoding="UTF-8" standalone="no"?><svg xmlns="http://www.w3.org/2000/svg" xmlns:xlink="http://www.w3.org/1999/xlink" contentStyleType="text/css" height="1739.0625px" preserveAspectRatio="none" style="width:1367px;height:1739px;background:#FFFFFF;" version="1.1" viewBox="0 0 1367 1739" width="1367.1875px" zoomAndPan="magnify"><defs/><g><rect fill="#E6F2FF" height="1557.6782" style="stroke:#3B82F6;stroke-width:1.5625;" width="15.625" x="67.1875" y="142.6514"/><rect fill="#E6F2FF" height="364.3677" style="stroke:#3B82F6;stroke-width:1.5625;" width="15.625" x="487.5" y="175.6714"/><rect fill="#E6F2FF" height="269.7876" style="stroke:#3B82F6;stroke-width:1.5625;" width="15.625" x="487.5" y="585.5591"/><rect fill="#E6F2FF" height="364.3677" style="stroke:#3B82F6;stroke-width:1.5625;" width="15.625" x="487.5" y="924.5117"/><rect fill="#E6F2FF" height="294.9951" style="stroke:#3B82F6;stroke-width:1.5625;" width="15.625" x="487.5" y="1405.3345"/><rect fill="#E6F2FF" height="273.3276" style="stroke:#3B82F6;stroke-width:1.5625;" width="15.625" x="842.1875" y="221.1914"/><rect fill="#E6F2FF" height="178.7476" style="stroke:#3B82F6;stroke-width:1.5625;" width="15.625" x="842.1875" y="631.0791"/><rect fill="#E6F2FF" height="273.3276" style="stroke:#3B82F6;stroke-width:1.5625;" width="15.625" x="842.1875" y="970.0317"/><rect fill="#E6F2FF" height="203.9551" style="stroke:#3B82F6;stroke-width:1.5625;" width="15.625" x="842.1875" y="1450.8545"/><rect fill="#E6F2FF" height="45.52" style="stroke:#3B82F6;stroke-width:1.5625;" width="15.625" x="1262.5" y="290.3564"/><rect fill="#E6F2FF" height="21.875" style="stroke:#3B82F6;stroke-width:1.5625;" width="15.625" x="1262.5" y="676.5991"/><rect fill="#E6F2FF" height="21.875" style="stroke:#3B82F6;stroke-width:1.5625;" width="15.625" x="1262.5" y="1015.5518"/><rect fill="#E6F2FF" height="21.875" style="stroke:#3B82F6;stroke-width:1.5625;" width="15.625" x="1262.5" y="1496.3745"/><rect fill="#E6F2FF" height="45.52" style="stroke:#3B82F6;stroke-width:1.5625;" width="15.625" x="1262.5" y="1563.7695"/><line style="stroke:#3B82F6;stroke-width:0.78125;stroke-dasharray:5.0,5.0;" x1="75" x2="75" y1="127.0264" y2="1728.4546"/><line style="stroke:#3B82F6;stroke-width:0.78125;stroke-dasharray:5.0,5.0;" x1="494.5313" x2="494.5313" y1="127.0264" y2="1728.4546"/><line style="stroke:#3B82F6;stroke-width:0.78125;stroke-dasharray:5.0,5.0;" x1="850" x2="850" y1="127.0264" y2="1728.4546"/><line style="stroke:#3B82F6;stroke-width:0.78125;stroke-dasharray:5.0,5.0;" x1="1269.5313" x2="1269.5313" y1="127.0264" y2="1728.4546"/><text fill="#000000" font-family="sans-serif" font-size="21.875" lengthAdjust="spacing" textLength="125" x="7.8125" y="121.8674">Người dùng</text><ellipse cx="75" cy="21.0938" fill="#E2E2F0" rx="12.5" ry="12.5" style="stroke:#181818;stroke-width:0.78125;"/><path d="M75,33.5938 L75,75.7813 M54.6875,46.0938 L95.3125,46.0938 M75,75.7813 L54.6875,99.2188 M75,75.7813 L95.3125,99.2188 " fill="none" style="stroke:#181818;stroke-width:0.78125;"/><rect fill="#E6F2FF" height="49.1577" rx="3.9063" ry="3.9063" style="stroke:#3B82F6;stroke-width:0.78125;" width="135.9375" x="427.3438" y="76.3062"/><text fill="#000000" font-family="sans-serif" font-size="23.4375" lengthAdjust="spacing" textLength="114.0625" x="438.2813" y="108.9989">:Giao diện</text><rect fill="#E6F2FF" height="49.1577" rx="3.9063" ry="3.9063" style="stroke:#3B82F6;stroke-width:0.78125;" width="134.375" x="782.8125" y="76.3062"/><text fill="#000000" font-family="sans-serif" font-size="23.4375" lengthAdjust="spacing" textLength="112.5" x="793.75" y="108.9989">:Hệ thống</text><rect fill="#E6F2FF" height="49.1577" rx="3.9063" ry="3.9063" style="stroke:#3B82F6;stroke-width:0.78125;" width="176.5625" x="1182.0313" y="76.3062"/><text fill="#000000" font-family="sans-serif" font-size="23.4375" lengthAdjust="spacing" textLength="154.6875" x="1192.9688" y="108.9989">:Cơ sở dữ liệu</text><rect fill="#E6F2FF" height="1557.6782" style="stroke:#3B82F6;stroke-width:1.5625;" width="15.625" x="67.1875" y="142.6514"/><rect fill="#E6F2FF" height="364.3677" style="stroke:#3B82F6;stroke-width:1.5625;" width="15.625" x="487.5" y="175.6714"/><rect fill="#E6F2FF" height="269.7876" style="stroke:#3B82F6;stroke-width:1.5625;" width="15.625" x="487.5" y="585.5591"/><rect fill="#E6F2FF" height="364.3677" style="stroke:#3B82F6;stroke-width:1.5625;" width="15.625" x="487.5" y="924.5117"/><rect fill="#E6F2FF" height="294.9951" style="stroke:#3B82F6;stroke-width:1.5625;" width="15.625" x="487.5" y="1405.3345"/><rect fill="#E6F2FF" height="273.3276" style="stroke:#3B82F6;stroke-width:1.5625;" width="15.625" x="842.1875" y="221.1914"/><rect fill="#E6F2FF" height="178.7476" style="stroke:#3B82F6;stroke-width:1.5625;" width="15.625" x="842.1875" y="631.0791"/><rect fill="#E6F2FF" height="273.3276" style="stroke:#3B82F6;stroke-width:1.5625;" width="15.625" x="842.1875" y="970.0317"/><rect fill="#E6F2FF" height="203.9551" style="stroke:#3B82F6;stroke-width:1.5625;" width="15.625" x="842.1875" y="1450.8545"/><rect fill="#E6F2FF" height="45.52" style="stroke:#3B82F6;stroke-width:1.5625;" width="15.625" x="1262.5" y="290.3564"/><rect fill="#E6F2FF" height="21.875" style="stroke:#3B82F6;stroke-width:1.5625;" width="15.625" x="1262.5" y="676.5991"/><rect fill="#E6F2FF" height="21.875" style="stroke:#3B82F6;stroke-width:1.5625;" width="15.625" x="1262.5" y="1015.5518"/><rect fill="#E6F2FF" height="21.875" style="stroke:#3B82F6;stroke-width:1.5625;" width="15.625" x="1262.5" y="1496.3745"/><rect fill="#E6F2FF" height="45.52" style="stroke:#3B82F6;stroke-width:1.5625;" width="15.625" x="1262.5" y="1563.7695"/><polygon fill="#000000" points="468.75,169.4214,484.375,175.6714,468.75,181.9214,475,175.6714" style="stroke:#000000;stroke-width:1.5625;"/><line style="stroke:#000000;stroke-width:1.5625;" x1="82.8125" x2="478.125" y1="175.6714" y2="175.6714"/><text fill="#000000" font-family="sans-serif" font-size="20.3125" lengthAdjust="spacing" textLength="268.75" x="93.75" y="167.7559">Mở bảng điều khiển tiến độ</text><polygon fill="#000000" points="823.4375,214.9414,839.0625,221.1914,823.4375,227.4414,829.6875,221.1914" style="stroke:#000000;stroke-width:1.5625;"/><line style="stroke:#000000;stroke-width:1.5625;" x1="503.125" x2="832.8125" y1="221.1914" y2="221.1914"/><text fill="#000000" font-family="sans-serif" font-size="20.3125" lengthAdjust="spacing" textLength="257.8125" x="514.0625" y="213.2759">Yêu cầu dữ liệu tổng quan</text><polygon fill="#000000" points="1243.75,284.1064,1259.375,290.3564,1243.75,296.6064,1250,290.3564" style="stroke:#000000;stroke-width:1.5625;"/><line style="stroke:#000000;stroke-width:1.5625;" x1="857.8125" x2="1253.125" y1="290.3564" y2="290.3564"/><text fill="#000000" font-family="sans-serif" font-size="20.3125" lengthAdjust="spacing" textLength="301.5625" x="868.75" y="258.7959">Truy vấn dự án, cột, nhiệm vụ,</text><text fill="#000000" font-family="sans-serif" font-size="20.3125" lengthAdjust="spacing" textLength="253.125" x="868.75" y="282.4409">người thực hiện, hạn chót</text><polygon fill="#000000" points="875,329.6265,859.375,335.8765,875,342.1265,868.75,335.8765" style="stroke:#000000;stroke-width:1.5625;"/><line style="stroke:#000000;stroke-width:1.5625;stroke-dasharray:2.0,2.0;" x1="865.625" x2="1268.75" y1="335.8765" y2="335.8765"/><text fill="#000000" font-family="sans-serif" font-size="20.3125" lengthAdjust="spacing" textLength="107.8125" x="884.375" y="327.961">Dữ liệu thô</text><line style="stroke:#000000;stroke-width:1.5625;" x1="857.8125" x2="923.4375" y1="428.6865" y2="428.6865"/><line style="stroke:#000000;stroke-width:1.5625;" x1="923.4375" x2="923.4375" y1="428.6865" y2="448.999"/><line style="stroke:#000000;stroke-width:1.5625;" x1="859.375" x2="923.4375" y1="448.999" y2="448.999"/><polygon fill="#000000" points="875,442.749,859.375,448.999,875,455.249,868.75,448.999" style="stroke:#000000;stroke-width:1.5625;"/><text fill="#000000" font-family="sans-serif" font-size="20.3125" lengthAdjust="spacing" textLength="225" x="868.75" y="373.481">Tính toán tiến độ tổng,</text><text fill="#000000" font-family="sans-serif" font-size="20.3125" lengthAdjust="spacing" textLength="282.8125" x="868.75" y="397.126">tiến độ theo cột, theo người,</text><text fill="#000000" font-family="sans-serif" font-size="20.3125" lengthAdjust="spacing" textLength="210.9375" x="868.75" y="420.771">và thống kê hạn chót</text><polygon fill="#000000" points="520.3125,488.269,504.6875,494.519,520.3125,500.769,514.0625,494.519" style="stroke:#000000;stroke-width:1.5625;"/><line style="stroke:#000000;stroke-width:1.5625;stroke-dasharray:2.0,2.0;" x1="510.9375" x2="848.4375" y1="494.519" y2="494.519"/><text fill="#000000" font-family="sans-serif" font-size="20.3125" lengthAdjust="spacing" textLength="185.9375" x="529.6875" y="486.6035">Trả dữ liệu đã xử lý</text><polygon fill="#000000" points="100,533.7891,84.375,540.0391,100,546.2891,93.75,540.0391" style="stroke:#000000;stroke-width:1.5625;"/><line style="stroke:#000000;stroke-width:1.5625;stroke-dasharray:2.0,2.0;" x1="90.625" x2="493.75" y1="540.0391" y2="540.0391"/><text fill="#000000" font-family="sans-serif" font-size="20.3125" lengthAdjust="spacing" textLength="317.1875" x="109.375" y="532.1236">Hiển thị bảng điều khiển tiến độ</text><polygon fill="#000000" points="468.75,579.3091,484.375,585.5591,468.75,591.8091,475,585.5591" style="stroke:#000000;stroke-width:1.5625;"/><line style="stroke:#000000;stroke-width:1.5625;" x1="82.8125" x2="478.125" y1="585.5591" y2="585.5591"/><text fill="#000000" font-family="sans-serif" font-size="20.3125" lengthAdjust="spacing" textLength="246.875" x="93.75" y="577.6436">Cập nhật hạn chót dự án</text><polygon fill="#000000" points="823.4375,624.8291,839.0625,631.0791,823.4375,637.3291,829.6875,631.0791" style="stroke:#000000;stroke-width:1.5625;"/><line style="stroke:#000000;stroke-width:1.5625;" x1="503.125" x2="832.8125" y1="631.0791" y2="631.0791"/><text fill="#000000" font-family="sans-serif" font-size="20.3125" lengthAdjust="spacing" textLength="301.5625" x="514.0625" y="623.1636">Gửi yêu cầu cập nhật deadline</text><polygon fill="#000000" points="1243.75,670.3491,1259.375,676.5991,1243.75,682.8491,1250,676.5991" style="stroke:#000000;stroke-width:1.5625;"/><line style="stroke:#000000;stroke-width:1.5625;" x1="857.8125" x2="1253.125" y1="676.5991" y2="676.5991"/><text fill="#000000" font-family="sans-serif" font-size="20.3125" lengthAdjust="spacing" textLength="298.4375" x="868.75" y="668.6836">Cập nhật deadline vào Project</text><polygon fill="#000000" points="875,692.2241,859.375,698.4741,875,704.7241,868.75,698.4741" style="stroke:#000000;stroke-width:1.5625;"/><line style="stroke:#000000;stroke-width:1.5625;stroke-dasharray:2.0,2.0;" x1="865.625" x2="1268.75" y1="698.4741" y2="698.4741"/><line style="stroke:#000000;stroke-width:1.5625;" x1="857.8125" x2="923.4375" y1="743.9941" y2="743.9941"/><line style="stroke:#000000;stroke-width:1.5625;" x1="923.4375" x2="923.4375" y1="743.9941" y2="764.3066"/><line style="stroke:#000000;stroke-width:1.5625;" x1="859.375" x2="923.4375" y1="764.3066" y2="764.3066"/><polygon fill="#000000" points="875,758.0566,859.375,764.3066,875,770.5566,868.75,764.3066" style="stroke:#000000;stroke-width:1.5625;"/><text fill="#000000" font-family="sans-serif" font-size="20.3125" lengthAdjust="spacing" textLength="234.375" x="868.75" y="736.0786">Kiểm tra dự án quá hạn</text><polygon fill="#000000" points="520.3125,803.5767,504.6875,809.8267,520.3125,816.0767,514.0625,809.8267" style="stroke:#000000;stroke-width:1.5625;"/><line style="stroke:#000000;stroke-width:1.5625;stroke-dasharray:2.0,2.0;" x1="510.9375" x2="848.4375" y1="809.8267" y2="809.8267"/><text fill="#000000" font-family="sans-serif" font-size="20.3125" lengthAdjust="spacing" textLength="196.875" x="529.6875" y="801.9112">Trả trạng thái dự án</text><polygon fill="#000000" points="100,849.0967,84.375,855.3467,100,861.5967,93.75,855.3467" style="stroke:#000000;stroke-width:1.5625;"/><line style="stroke:#000000;stroke-width:1.5625;stroke-dasharray:2.0,2.0;" x1="90.625" x2="493.75" y1="855.3467" y2="855.3467"/><text fill="#000000" font-family="sans-serif" font-size="20.3125" lengthAdjust="spacing" textLength="225" x="109.375" y="847.4312">Hiển thị trạng thái mới</text><polygon fill="#000000" points="468.75,918.2617,484.375,924.5117,468.75,930.7617,475,924.5117" style="stroke:#000000;stroke-width:1.5625;"/><line style="stroke:#000000;stroke-width:1.5625;" x1="82.8125" x2="478.125" y1="924.5117" y2="924.5117"/><text fill="#000000" font-family="sans-serif" font-size="20.3125" lengthAdjust="spacing" textLength="214.0625" x="93.75" y="892.9512">Xem thống kê tiến độ</text><text fill="#000000" font-family="sans-serif" font-size="20.3125" lengthAdjust="spacing" textLength="375" x="93.75" y="916.5962">(tổng, theo cột, theo người, hạn chót)</text><polygon fill="#000000" points="823.4375,963.7817,839.0625,970.0317,823.4375,976.2817,829.6875,970.0317" style="stroke:#000000;stroke-width:1.5625;"/><line style="stroke:#000000;stroke-width:1.5625;" x1="503.125" x2="832.8125" y1="970.0317" y2="970.0317"/><text fill="#000000" font-family="sans-serif" font-size="20.3125" lengthAdjust="spacing" textLength="279.6875" x="514.0625" y="962.1162">Yêu cầu thống kê tương ứng</text><polygon fill="#000000" points="1243.75,1009.3018,1259.375,1015.5518,1243.75,1021.8018,1250,1015.5518" style="stroke:#000000;stroke-width:1.5625;"/><line style="stroke:#000000;stroke-width:1.5625;" x1="857.8125" x2="1253.125" y1="1015.5518" y2="1015.5518"/><text fill="#000000" font-family="sans-serif" font-size="20.3125" lengthAdjust="spacing" textLength="375" x="868.75" y="1007.6363">Truy vấn nhiệm vụ + dữ liệu liên quan</text><polygon fill="#000000" points="875,1031.1768,859.375,1037.4268,875,1043.6768,868.75,1037.4268" style="stroke:#000000;stroke-width:1.5625;"/><line style="stroke:#000000;stroke-width:1.5625;stroke-dasharray:2.0,2.0;" x1="865.625" x2="1268.75" y1="1037.4268" y2="1037.4268"/><line style="stroke:#000000;stroke-width:1.5625;" x1="857.8125" x2="923.4375" y1="1177.5269" y2="1177.5269"/><line style="stroke:#000000;stroke-width:1.5625;" x1="923.4375" x2="923.4375" y1="1177.5269" y2="1197.8394"/><line style="stroke:#000000;stroke-width:1.5625;" x1="859.375" x2="923.4375" y1="1197.8394" y2="1197.8394"/><polygon fill="#000000" points="875,1191.5894,859.375,1197.8394,875,1204.0894,868.75,1197.8394" style="stroke:#000000;stroke-width:1.5625;"/><text fill="#000000" font-family="sans-serif" font-size="20.3125" lengthAdjust="spacing" textLength="185.9375" x="868.75" y="1075.0313">Tính toán thống kê</text><text fill="#000000" font-family="sans-serif" font-size="20.3125" lengthAdjust="spacing" textLength="137.5" x="868.75" y="1098.6763">- Tổng tiến độ</text><text fill="#000000" font-family="sans-serif" font-size="20.3125" lengthAdjust="spacing" textLength="100" x="868.75" y="1122.3213">- Theo cột</text><text fill="#000000" font-family="sans-serif" font-size="20.3125" lengthAdjust="spacing" textLength="123.4375" x="868.75" y="1145.9663">- Theo người</text><text fill="#000000" font-family="sans-serif" font-size="20.3125" lengthAdjust="spacing" textLength="207.8125" x="868.75" y="1169.6114">- Tình trạng hạn chót</text><polygon fill="#000000" points="520.3125,1237.1094,504.6875,1243.3594,520.3125,1249.6094,514.0625,1243.3594" style="stroke:#000000;stroke-width:1.5625;"/><line style="stroke:#000000;stroke-width:1.5625;stroke-dasharray:2.0,2.0;" x1="510.9375" x2="848.4375" y1="1243.3594" y2="1243.3594"/><text fill="#000000" font-family="sans-serif" font-size="20.3125" lengthAdjust="spacing" textLength="196.875" x="529.6875" y="1235.4439">Trả dữ liệu thống kê</text><polygon fill="#000000" points="100,1282.6294,84.375,1288.8794,100,1295.1294,93.75,1288.8794" style="stroke:#000000;stroke-width:1.5625;"/><line style="stroke:#000000;stroke-width:1.5625;stroke-dasharray:2.0,2.0;" x1="90.625" x2="493.75" y1="1288.8794" y2="1288.8794"/><text fill="#000000" font-family="sans-serif" font-size="20.3125" lengthAdjust="spacing" textLength="337.5" x="109.375" y="1280.9639">Hiển thị biểu đồ và bảng thống kê</text><polygon fill="#000000" points="468.75,1399.0845,484.375,1405.3345,468.75,1411.5845,475,1405.3345" style="stroke:#000000;stroke-width:1.5625;"/><line style="stroke:#000000;stroke-width:1.5625;" x1="82.8125" x2="478.125" y1="1405.3345" y2="1405.3345"/><text fill="#000000" font-family="sans-serif" font-size="20.3125" lengthAdjust="spacing" textLength="184.375" x="93.75" y="1326.4839">Thao tác nhiệm vụ</text><text fill="#000000" font-family="sans-serif" font-size="20.3125" lengthAdjust="spacing" textLength="240.625" x="93.75" y="1350.1289">(tạo / xóa / hoàn thành /</text><text fill="#000000" font-family="sans-serif" font-size="20.3125" lengthAdjust="spacing" textLength="245.3125" x="93.75" y="1373.774">đổi người / đổi hạn chót /</text><text fill="#000000" font-family="sans-serif" font-size="20.3125" lengthAdjust="spacing" textLength="120.3125" x="93.75" y="1397.419">kéo thả cột)</text><polygon fill="#000000" points="823.4375,1444.6045,839.0625,1450.8545,823.4375,1457.1045,829.6875,1450.8545" style="stroke:#000000;stroke-width:1.5625;"/><line style="stroke:#000000;stroke-width:1.5625;" x1="503.125" x2="832.8125" y1="1450.8545" y2="1450.8545"/><text fill="#000000" font-family="sans-serif" font-size="20.3125" lengthAdjust="spacing" textLength="309.375" x="514.0625" y="1442.939">Gửi yêu cầu cập nhật nhiệm vụ</text><polygon fill="#000000" points="1243.75,1490.1245,1259.375,1496.3745,1243.75,1502.6245,1250,1496.3745" style="stroke:#000000;stroke-width:1.5625;"/><line style="stroke:#000000;stroke-width:1.5625;" x1="857.8125" x2="1253.125" y1="1496.3745" y2="1496.3745"/><text fill="#000000" font-family="sans-serif" font-size="20.3125" lengthAdjust="spacing" textLength="189.0625" x="868.75" y="1488.459">Cập nhật nhiệm vụ</text><polygon fill="#000000" points="875,1511.9995,859.375,1518.2495,875,1524.4995,868.75,1518.2495" style="stroke:#000000;stroke-width:1.5625;"/><line style="stroke:#000000;stroke-width:1.5625;stroke-dasharray:2.0,2.0;" x1="865.625" x2="1268.75" y1="1518.2495" y2="1518.2495"/><polygon fill="#000000" points="1243.75,1557.5195,1259.375,1563.7695,1243.75,1570.0195,1250,1563.7695" style="stroke:#000000;stroke-width:1.5625;"/><line style="stroke:#000000;stroke-width:1.5625;" x1="857.8125" x2="1253.125" y1="1563.7695" y2="1563.7695"/><text fill="#000000" font-family="sans-serif" font-size="20.3125" lengthAdjust="spacing" textLength="300" x="868.75" y="1555.854">Tính lại thống kê tiến độ dự án</text><polygon fill="#000000" points="875,1603.0396,859.375,1609.2896,875,1615.5396,868.75,1609.2896" style="stroke:#000000;stroke-width:1.5625;"/><line style="stroke:#000000;stroke-width:1.5625;stroke-dasharray:2.0,2.0;" x1="865.625" x2="1268.75" y1="1609.2896" y2="1609.2896"/><text fill="#000000" font-family="sans-serif" font-size="20.3125" lengthAdjust="spacing" textLength="207.8125" x="884.375" y="1601.3741">Dữ liệu tổng hợp mới</text><polygon fill="#000000" points="520.3125,1648.5596,504.6875,1654.8096,520.3125,1661.0596,514.0625,1654.8096" style="stroke:#000000;stroke-width:1.5625;"/><line style="stroke:#000000;stroke-width:1.5625;stroke-dasharray:2.0,2.0;" x1="510.9375" x2="848.4375" y1="1654.8096" y2="1654.8096"/><text fill="#000000" font-family="sans-serif" font-size="20.3125" lengthAdjust="spacing" textLength="231.25" x="529.6875" y="1646.8941">Trả tiến độ đã cập nhật</text><polygon fill="#000000" points="92.1875,1694.0796,76.5625,1700.3296,92.1875,1706.5796,85.9375,1700.3296" style="stroke:#000000;stroke-width:1.5625;"/><line style="stroke:#000000;stroke-width:1.5625;stroke-dasharray:2.0,2.0;" x1="82.8125" x2="493.75" y1="1700.3296" y2="1700.3296"/><text fill="#000000" font-family="sans-serif" font-size="20.3125" lengthAdjust="spacing" textLength="329.6875" x="101.5625" y="1692.4141">Cập nhật bảng điều khiển tiến độ</text><!--MD5=[76be053e82fe95ca1472c818bce188d4]
@startuml
!pragma useUnicode true
skinparam dpi 150
skinparam sequence {
  LifeLineBorderColor #3B82F6
  LifeLineBackgroundColor #E6F2FF
  ArrowColor #000000
  ParticipantFontSize 15
  BoxFontSize 15
  ParticipantBorderColor #3B82F6
  ParticipantBackgroundColor #E6F2FF
}
hide footbox

actor "Người dùng" as User
participant ":Giao diện" as UI
participant ":Hệ thống" as System
participant ":Cơ sở dữ liệu" as DB

activate User

' === 1. Mở bảng điều khiển tiến độ ===
User -> UI: Mở bảng điều khiển tiến độ
activate UI
UI -> System: Yêu cầu dữ liệu tổng quan
activate System
System -> DB: Truy vấn dự án, cột, nhiệm vụ,\nngười thực hiện, hạn chót
activate DB
DB - -> System: Dữ liệu thô
deactivate DB

System -> System: Tính toán tiến độ tổng,\ntiến độ theo cột, theo người,\nvà thống kê hạn chót
System - -> UI: Trả dữ liệu đã xử lý
deactivate System
UI - -> User: Hiển thị bảng điều khiển tiến độ
deactivate UI

' === 2. Cập nhật hạn chót dự án ===
User -> UI: Cập nhật hạn chót dự án
activate UI
UI -> System: Gửi yêu cầu cập nhật deadline
activate System
System -> DB: Cập nhật deadline vào Project
activate DB
DB - -> System
deactivate DB

System -> System: Kiểm tra dự án quá hạn
System - -> UI: Trả trạng thái dự án
deactivate System
UI - -> User: Hiển thị trạng thái mới
deactivate UI

' === 3. Xem thống kê (gộp thành 1 nhóm) ===
User -> UI: Xem thống kê tiến độ\n(tổng, theo cột, theo người, hạn chót)
activate UI
UI -> System: Yêu cầu thống kê tương ứng
activate System
System -> DB: Truy vấn nhiệm vụ + dữ liệu liên quan
activate DB
DB - -> System
deactivate DB

System -> System: Tính toán thống kê\n- Tổng tiến độ\n- Theo cột\n- Theo người\n- Tình trạng hạn chót
System - -> UI: Trả dữ liệu thống kê
deactivate System
UI - -> User: Hiển thị biểu đồ và bảng thống kê
deactivate UI

' === 4. Người dùng thao tác với nhiệm vụ ===
User -> UI: Thao tác nhiệm vụ\n(tạo / xóa / hoàn thành /\nđổi người / đổi hạn chót /\nkéo thả cột)
activate UI
UI -> System: Gửi yêu cầu cập nhật nhiệm vụ
activate System
System -> DB: Cập nhật nhiệm vụ
activate DB
DB - -> System
deactivate DB

System -> DB: Tính lại thống kê tiến độ dự án
activate DB
DB - -> System: Dữ liệu tổng hợp mới
deactivate DB

System - -> UI: Trả tiến độ đã cập nhật
deactivate System
UI - -> User: Cập nhật bảng điều khiển tiến độ
deactivate UI

deactivate User
@enduml

@startuml
!pragma useUnicode true
skinparam dpi 150
skinparam sequence {
  LifeLineBorderColor #3B82F6
  LifeLineBackgroundColor #E6F2FF
  ArrowColor #000000
  ParticipantFontSize 15
  BoxFontSize 15
  ParticipantBorderColor #3B82F6
  ParticipantBackgroundColor #E6F2FF
}
hide footbox

actor "Người dùng" as User
participant ":Giao diện" as UI
participant ":Hệ thống" as System
participant ":Cơ sở dữ liệu" as DB

activate User

User -> UI: Mở bảng điều khiển tiến độ
activate UI
UI -> System: Yêu cầu dữ liệu tổng quan
activate System
System -> DB: Truy vấn dự án, cột, nhiệm vụ,\nngười thực hiện, hạn chót
activate DB
DB - -> System: Dữ liệu thô
deactivate DB

System -> System: Tính toán tiến độ tổng,\ntiến độ theo cột, theo người,\nvà thống kê hạn chót
System - -> UI: Trả dữ liệu đã xử lý
deactivate System
UI - -> User: Hiển thị bảng điều khiển tiến độ
deactivate UI

User -> UI: Cập nhật hạn chót dự án
activate UI
UI -> System: Gửi yêu cầu cập nhật deadline
activate System
System -> DB: Cập nhật deadline vào Project
activate DB
DB - -> System
deactivate DB

System -> System: Kiểm tra dự án quá hạn
System - -> UI: Trả trạng thái dự án
deactivate System
UI - -> User: Hiển thị trạng thái mới
deactivate UI

User -> UI: Xem thống kê tiến độ\n(tổng, theo cột, theo người, hạn chót)
activate UI
UI -> System: Yêu cầu thống kê tương ứng
activate System
System -> DB: Truy vấn nhiệm vụ + dữ liệu liên quan
activate DB
DB - -> System
deactivate DB

System -> System: Tính toán thống kê\n- Tổng tiến độ\n- Theo cột\n- Theo người\n- Tình trạng hạn chót
System - -> UI: Trả dữ liệu thống kê
deactivate System
UI - -> User: Hiển thị biểu đồ và bảng thống kê
deactivate UI

User -> UI: Thao tác nhiệm vụ\n(tạo / xóa / hoàn thành /\nđổi người / đổi hạn chót /\nkéo thả cột)
activate UI
UI -> System: Gửi yêu cầu cập nhật nhiệm vụ
activate System
System -> DB: Cập nhật nhiệm vụ
activate DB
DB - -> System
deactivate DB

System -> DB: Tính lại thống kê tiến độ dự án
activate DB
DB - -> System: Dữ liệu tổng hợp mới
deactivate DB

System - -> UI: Trả tiến độ đã cập nhật
deactivate System
UI - -> User: Cập nhật bảng điều khiển tiến độ
deactivate UI

deactivate User
@enduml

PlantUML version 1.2022.7(Mon Aug 22 17:01:30 UTC 2022)
(GPL source distribution)
Java Runtime: OpenJDK Runtime Environment
JVM: OpenJDK 64-Bit Server VM
Default Encoding: UTF-8
Language: en
Country: null
--></g></svg>